ISO-10303-21;
HEADER;
FILE_DESCRIPTION(('Aetheris AP242 assembly product structure'),'2;1');
FILE_NAME('aetheris_assembly.step','1970-01-01T00:00:00',('Aetheris'),('Aetheris'),'Aetheris.Kernel','Aetheris.Kernel','');
FILE_SCHEMA(('AP242_MANAGED_MODEL_BASED_3D_ENGINEERING_MIM_LF'));
ENDSEC;
DATA;
#1=CARTESIAN_POINT($,(0,0,0));
#2=DIRECTION($,(-0,-0,-1));
#3=DIRECTION($,(1,0,0));
#4=AXIS2_PLACEMENT_3D($,#1,#2,#3);
#5=PLANE($,#4);
#6=CARTESIAN_POINT($,(9,0,0));
#7=VERTEX_POINT($,#6);
#8=CARTESIAN_POINT($,(0,0,0));
#9=DIRECTION($,(0,0,1));
#10=DIRECTION($,(1,0,0));
#11=AXIS2_PLACEMENT_3D($,#8,#9,#10);
#12=CIRCLE($,#11,9);
#13=EDGE_CURVE($,#7,#7,#12,.T.);
#14=ORIENTED_EDGE($,$,$,#13,.T.);
#15=EDGE_LOOP($,(#14));
#16=FACE_OUTER_BOUND('',#15,.T.);
#17=CARTESIAN_POINT($,(5.5,0,0));
#18=VERTEX_POINT($,#17);
#19=CARTESIAN_POINT($,(0,0,0));
#20=DIRECTION($,(0,0,1));
#21=DIRECTION($,(1,0,0));
#22=AXIS2_PLACEMENT_3D($,#19,#20,#21);
#23=CIRCLE($,#22,5.5);
#24=EDGE_CURVE($,#18,#18,#23,.T.);
#25=ORIENTED_EDGE($,$,$,#24,.T.);
#26=EDGE_LOOP($,(#25));
#27=FACE_BOUND('',#26,.T.);
#28=ADVANCED_FACE('',(#16,#27),#5,.T.);
#29=CARTESIAN_POINT($,(0,0,11));
#30=DIRECTION($,(0,0,1));
#31=DIRECTION($,(1,0,0));
#32=AXIS2_PLACEMENT_3D($,#29,#30,#31);
#33=PLANE($,#32);
#34=CARTESIAN_POINT($,(9,0,11));
#35=VERTEX_POINT($,#34);
#36=CARTESIAN_POINT($,(0,0,11));
#37=DIRECTION($,(0,0,1));
#38=DIRECTION($,(1,0,0));
#39=AXIS2_PLACEMENT_3D($,#36,#37,#38);
#40=CIRCLE($,#39,9);
#41=EDGE_CURVE($,#35,#35,#40,.T.);
#42=ORIENTED_EDGE($,$,$,#41,.T.);
#43=EDGE_LOOP($,(#42));
#44=FACE_OUTER_BOUND('',#43,.T.);
#45=CARTESIAN_POINT($,(5.5,0,11));
#46=VERTEX_POINT($,#45);
#47=CARTESIAN_POINT($,(0,0,11));
#48=DIRECTION($,(0,0,1));
#49=DIRECTION($,(1,0,0));
#50=AXIS2_PLACEMENT_3D($,#47,#48,#49);
#51=CIRCLE($,#50,5.5);
#52=EDGE_CURVE($,#46,#46,#51,.T.);
#53=ORIENTED_EDGE($,$,$,#52,.T.);
#54=EDGE_LOOP($,(#53));
#55=FACE_BOUND('',#54,.T.);
#56=ADVANCED_FACE('',(#44,#55),#33,.T.);
#57=CARTESIAN_POINT($,(0,0,0));
#58=DIRECTION($,(0,0,1));
#59=DIRECTION($,(1,0,0));
#60=AXIS2_PLACEMENT_3D($,#57,#58,#59);
#61=CYLINDRICAL_SURFACE($,#60,9);
#62=ORIENTED_EDGE($,$,$,#13,.T.);
#63=CARTESIAN_POINT($,(9,0,0));
#64=DIRECTION($,(0,0,1));
#65=VECTOR($,#64,1);
#66=LINE($,#63,#65);
#67=EDGE_CURVE($,#7,#35,#66,.T.);
#68=ORIENTED_EDGE($,$,$,#67,.T.);
#69=ORIENTED_EDGE($,$,$,#41,.F.);
#70=ORIENTED_EDGE($,$,$,#67,.F.);
#71=EDGE_LOOP($,(#62,#68,#69,#70));
#72=FACE_OUTER_BOUND('',#71,.T.);
#73=ADVANCED_FACE('',(#72),#61,.T.);
#74=CARTESIAN_POINT($,(0,0,0));
#75=DIRECTION($,(0,0,1));
#76=DIRECTION($,(1,0,0));
#77=AXIS2_PLACEMENT_3D($,#74,#75,#76);
#78=CYLINDRICAL_SURFACE($,#77,5.5);
#79=ORIENTED_EDGE($,$,$,#24,.T.);
#80=CARTESIAN_POINT($,(5.5,0,0));
#81=DIRECTION($,(0,0,1));
#82=VECTOR($,#81,1);
#83=LINE($,#80,#82);
#84=EDGE_CURVE($,#18,#46,#83,.T.);
#85=ORIENTED_EDGE($,$,$,#84,.T.);
#86=ORIENTED_EDGE($,$,$,#52,.F.);
#87=ORIENTED_EDGE($,$,$,#84,.F.);
#88=EDGE_LOOP($,(#79,#85,#86,#87));
#89=FACE_OUTER_BOUND('',#88,.T.);
#90=ADVANCED_FACE('',(#89),#78,.F.);
#91=CLOSED_SHELL($,(#28,#56,#73,#90));
#92=MANIFOLD_SOLID_BREP('AnnularCollar<OuterRadius: 9mm, InnerRadius: 5.5mm, CollarHeight: 11mm>',#91);
#93=APPLICATION_CONTEXT('mechanical design');
#94=PRODUCT_CONTEXT('',#93,'mechanical');
#95=PRODUCT('assembly-definition:0FBACAD0F10FC875','AnnularCollar<OuterRadius: 9mm, InnerRadius: 5.5mm, CollarHeight: 11mm>','Aetheris shared assembly definition',(#94));
#96=PRODUCT_DEFINITION_FORMATION('','',#95);
#97=PRODUCT_DEFINITION_CONTEXT('design',#93,'design');
#98=PRODUCT_DEFINITION('','',#96,#97);
#99=PRODUCT_DEFINITION_SHAPE('','',#98);
#100=(LENGTH_UNIT()NAMED_UNIT(*)SI_UNIT(.MILLI.,.METRE.));
#101=(NAMED_UNIT(*)PLANE_ANGLE_UNIT()SI_UNIT($,.RADIAN.));
#102=(NAMED_UNIT(*)SI_UNIT($,.STERADIAN.)SOLID_ANGLE_UNIT());
#103=(GEOMETRIC_REPRESENTATION_CONTEXT(3)GLOBAL_UNIT_ASSIGNED_CONTEXT((#100,#101,#102))REPRESENTATION_CONTEXT('3','3D'));
#104=SHAPE_REPRESENTATION('AnnularCollar<OuterRadius: 9mm, InnerRadius: 5.5mm, CollarHeight: 11mm>',(#92),#103);
#105=SHAPE_DEFINITION_REPRESENTATION(#99,#104);
#106=REPRESENTATION_CONTEXT('2D','parameter space');
#107=CARTESIAN_POINT($,(-39,27,451.4));
#108=CARTESIAN_POINT($,(57.0353878070938,78.9343941975874,339.984854337873));
#109=CARTESIAN_POINT($,(-30.0529870527411,27,463.329350596345));
#110=CARTESIAN_POINT($,(101.559196969899,79.146709127089,346.218193015627));
#111=CARTESIAN_POINT($,(-22.8,14.9116882454314,473));
#112=CARTESIAN_POINT($,(137.592157731429,43.7444671173938,351.262811888365));
#113=CARTESIAN_POINT($,(-22.8,0,473));
#114=CARTESIAN_POINT($,(137.376060244673,0,351.232558214035));
#115=B_SPLINE_SURFACE_WITH_KNOTS($,3,1,((#107,#108),(#109,#110),(#111,#112),(#113,#114)),.RULED_SURFACE.,.F.,.F.,.F.,(4,4),(2,2),(0,1),(0,1),.UNSPECIFIED.);
#116=CARTESIAN_POINT($,(-22.8,0,473));
#117=CARTESIAN_POINT($,(137.376060244673,0,351.232558214035));
#118=CARTESIAN_POINT($,(-22.8,-14.9116882454314,473));
#119=CARTESIAN_POINT($,(137.161440965622,-43.4452345381621,351.202511488962));
#120=CARTESIAN_POINT($,(-30.0529870527411,-27,463.329350596345));
#121=CARTESIAN_POINT($,(101.254633327204,-78.7235316013329,346.175554068746));
#122=CARTESIAN_POINT($,(-39,-27,451.4));
#123=CARTESIAN_POINT($,(57.0353878070938,-78.9343941975874,339.984854337873));
#124=B_SPLINE_SURFACE_WITH_KNOTS($,3,1,((#116,#117),(#118,#119),(#120,#121),(#122,#123)),.RULED_SURFACE.,.F.,.F.,.F.,(4,4),(2,2),(0,1),(0,1),.UNSPECIFIED.);
#125=CARTESIAN_POINT($,(-39,-27,451.4));
#126=CARTESIAN_POINT($,(57.0353878070938,-78.9343941975874,339.984854337873));
#127=CARTESIAN_POINT($,(-47.9470129472588,-27,439.470649403655));
#128=CARTESIAN_POINT($,(12.5115786442891,-79.146709127089,333.751515660119));
#129=CARTESIAN_POINT($,(-55.2,-14.9116882454314,429.8));
#130=CARTESIAN_POINT($,(-23.5213821172412,-43.7444671173938,328.706896787381));
#131=CARTESIAN_POINT($,(-55.2,-0,429.8));
#132=CARTESIAN_POINT($,(-23.3052846304854,-0,328.737150461712));
#133=B_SPLINE_SURFACE_WITH_KNOTS($,3,1,((#125,#126),(#127,#128),(#129,#130),(#131,#132)),.RULED_SURFACE.,.F.,.F.,.F.,(4,4),(2,2),(0,1),(0,1),.UNSPECIFIED.);
#134=CARTESIAN_POINT($,(-55.2,-0,429.8));
#135=CARTESIAN_POINT($,(-23.3052846304854,-0,328.737150461712));
#136=CARTESIAN_POINT($,(-55.2,14.8932885460388,429.8));
#137=CARTESIAN_POINT($,(-23.0909236480678,43.392947726492,328.767161025224));
#138=CARTESIAN_POINT($,(-47.9642338368889,26.9739651976979,439.447688217481));
#139=CARTESIAN_POINT($,(12.7329895745014,78.64933298471,333.782513217177));
#140=CARTESIAN_POINT($,(-39.0282743195276,26.9999588766588,451.362300907297));
#141=CARTESIAN_POINT($,(56.8989530687443,78.933629782362,339.965753457972));
#142=B_SPLINE_SURFACE_WITH_KNOTS($,3,1,((#134,#135),(#136,#137),(#138,#139),(#140,#141)),.RULED_SURFACE.,.F.,.F.,.F.,(4,4),(2,2),(0,1),(0,1),.UNSPECIFIED.);
#143=CARTESIAN_POINT($,(-39.0282743195276,26.9999588766588,451.362300907297));
#144=CARTESIAN_POINT($,(56.8989530687443,78.933629782362,339.965753457972));
#145=CARTESIAN_POINT($,(-39.027227122508,25.9999603997455,451.363697169989));
#146=CARTESIAN_POINT($,(56.9006815544489,77.9336230953739,339.96599544618));
#147=B_SPLINE_SURFACE_WITH_KNOTS($,1,1,((#143,#144),(#145,#146)),.RULED_SURFACE.,.F.,.F.,.F.,(2,2),(2,2),(0,1),(0,1),.UNSPECIFIED.);
#148=CARTESIAN_POINT($,(-39.027227122508,25.9999603997455,451.363697169989));
#149=CARTESIAN_POINT($,(56.9006815544489,77.9336230953739,339.96599544618));
#150=CARTESIAN_POINT($,(-47.6322251762634,25.974929449635,439.890366431649));
#151=CARTESIAN_POINT($,(13.2810171502005,77.6503332688164,333.859237144179));
#152=CARTESIAN_POINT($,(-54.6,14.3416852665559,430.6));
#153=CARTESIAN_POINT($,(-22.1005442849121,42.8413720920468,328.905814256071));
#154=CARTESIAN_POINT($,(-54.6,-0,430.6));
#155=CARTESIAN_POINT($,(-22.3149336259919,-0,328.875799722342));
#156=B_SPLINE_SURFACE_WITH_KNOTS($,3,1,((#148,#149),(#150,#151),(#152,#153),(#154,#155)),.RULED_SURFACE.,.F.,.F.,.F.,(4,4),(2,2),(0,1),(0,1),.UNSPECIFIED.);
#157=CARTESIAN_POINT($,(-54.6,-0,430.6));
#158=CARTESIAN_POINT($,(-22.3149336259919,-0,328.875799722342));
#159=CARTESIAN_POINT($,(-54.6,-14.3594034956006,430.6));
#160=CARTESIAN_POINT($,(-22.5310783980673,-43.1921594590321,328.845539428061));
#161=CARTESIAN_POINT($,(-47.6156420973604,-26,439.912477203519));
#162=CARTESIAN_POINT($,(13.0584999713195,-78.1466735153861,333.828084712174));
#163=CARTESIAN_POINT($,(-39,-26,451.4));
#164=CARTESIAN_POINT($,(57.0353878070937,-77.9343856541672,339.984854337873));
#165=B_SPLINE_SURFACE_WITH_KNOTS($,3,1,((#157,#158),(#159,#160),(#161,#162),(#163,#164)),.RULED_SURFACE.,.F.,.F.,.F.,(4,4),(2,2),(0,1),(0,1),.UNSPECIFIED.);
#166=CARTESIAN_POINT($,(-39,-26,451.4));
#167=CARTESIAN_POINT($,(57.0353878070938,-77.9343856541672,339.984854337873));
#168=CARTESIAN_POINT($,(-30.3843579026396,-26,462.88752279648));
#169=CARTESIAN_POINT($,(100.707658522367,-77.7235682589177,346.098977529792));
#170=CARTESIAN_POINT($,(-23.4,-14.3594034956006,472.2));
#171=CARTESIAN_POINT($,(136.171061649949,-42.8929779596101,351.063858264763));
#172=CARTESIAN_POINT($,(-23.4,-0,472.2));
#173=CARTESIAN_POINT($,(136.385709240179,0,351.093908953404));
#174=B_SPLINE_SURFACE_WITH_KNOTS($,3,1,((#166,#167),(#168,#169),(#170,#171),(#172,#173)),.RULED_SURFACE.,.F.,.F.,.F.,(4,4),(2,2),(0,1),(0,1),.UNSPECIFIED.);
#175=CARTESIAN_POINT($,(-23.4,0,472.2));
#176=CARTESIAN_POINT($,(136.385709240179,0,351.093908953404));
#177=CARTESIAN_POINT($,(-23.4,14.3594034956006,472.2));
#178=CARTESIAN_POINT($,(136.601854012255,43.1921594590321,351.124169247685));
#179=CARTESIAN_POINT($,(-30.3843579026396,26,462.88752279648));
#180=CARTESIAN_POINT($,(101.012275642868,78.1466735153861,346.141623963573));
#181=CARTESIAN_POINT($,(-39,26,451.4));
#182=CARTESIAN_POINT($,(57.0353878070938,77.9343856541672,339.984854337873));
#183=B_SPLINE_SURFACE_WITH_KNOTS($,3,1,((#175,#176),(#177,#178),(#179,#180),(#181,#182)),.RULED_SURFACE.,.F.,.F.,.F.,(4,4),(2,2),(0,1),(0,1),.UNSPECIFIED.);
#184=CARTESIAN_POINT($,(-39,26,451.4));
#185=DIRECTION($,(-0.7574508152071,0,-0.6528922288878));
#186=DIRECTION($,(0,1,0));
#187=AXIS2_PLACEMENT_3D($,#184,#185,#186);
#188=PLANE($,#187);
#189=CARTESIAN_POINT($,(-39,0,451.4));
#190=DIRECTION($,(-0.8,-0,0.6));
#191=DIRECTION($,(-0.6,0,-0.8));
#192=AXIS2_PLACEMENT_3D($,#189,#190,#191);
#193=PLANE($,#192);
#194=CARTESIAN_POINT($,(56.665,0,339.933));
#195=DIRECTION($,(0.1386479622276,0,-0.9903417301973));
#196=DIRECTION($,(-0.9903417301973,0,-0.1386479622276));
#197=AXIS2_PLACEMENT_3D($,#194,#195,#196);
#198=PLANE($,#197);
#199=CARTESIAN_POINT($,(-39,27,451.4));
#200=VERTEX_POINT($,#199);
#201=CARTESIAN_POINT($,(-22.8,0,473));
#202=VERTEX_POINT($,#201);
#203=CARTESIAN_POINT($,(-39,27,451.4));
#204=CARTESIAN_POINT($,(-30.0529870527411,27,463.329350596345));
#205=CARTESIAN_POINT($,(-22.8,14.9116882454314,473));
#206=CARTESIAN_POINT($,(-22.8,0,473));
#207=B_SPLINE_CURVE_WITH_KNOTS($,3,(#203,#204,#205,#206),.UNSPECIFIED.,.F.,.F.,(4,4),(0,1),.UNSPECIFIED.);
#208=CARTESIAN_POINT($,(0,0));
#209=DIRECTION($,(1,0));
#210=VECTOR($,#209,1);
#211=LINE($,#208,#210);
#212=DEFINITIONAL_REPRESENTATION('pcurve',(#211),#106);
#213=PCURVE($,#115,#212);
#214=CARTESIAN_POINT($,(0,-27));
#215=CARTESIAN_POINT($,(-14.9116882454314,-27));
#216=CARTESIAN_POINT($,(-27,-14.9116882454314));
#217=CARTESIAN_POINT($,(-27,-0));
#218=B_SPLINE_CURVE_WITH_KNOTS($,3,(#214,#215,#216,#217),.UNSPECIFIED.,.F.,.F.,(4,4),(0,1),.UNSPECIFIED.);
#219=DEFINITIONAL_REPRESENTATION('pcurve',(#218),#106);
#220=PCURVE($,#193,#219);
#221=SURFACE_CURVE($,#207,(#213,#220),.PCURVE_S1.);
#222=EDGE_CURVE($,#200,#202,#221,.T.);
#223=ORIENTED_EDGE($,$,$,#222,.T.);
#224=CARTESIAN_POINT($,(137.37606024467,0,351.232558214031));
#225=VERTEX_POINT($,#224);
#226=CARTESIAN_POINT($,(-22.8,0,473));
#227=DIRECTION($,(0.7960816527419,0,-0.6051892283969));
#228=VECTOR($,#227,1);
#229=LINE($,#226,#228);
#230=CARTESIAN_POINT($,(1,0));
#231=DIRECTION($,(0,1));
#232=VECTOR($,#231,0.0049700414127);
#233=LINE($,#230,#232);
#234=DEFINITIONAL_REPRESENTATION('pcurve',(#233),#106);
#235=PCURVE($,#115,#234);
#236=CARTESIAN_POINT($,(0,0));
#237=DIRECTION($,(0,1));
#238=VECTOR($,#237,0.0049700414127);
#239=LINE($,#236,#238);
#240=DEFINITIONAL_REPRESENTATION('pcurve',(#239),#106);
#241=PCURVE($,#124,#240);
#242=SURFACE_CURVE($,#229,(#235,#241),.PCURVE_S1.);
#243=EDGE_CURVE($,#202,#225,#242,.T.);
#244=ORIENTED_EDGE($,$,$,#243,.T.);
#245=CARTESIAN_POINT($,(57.0353878070938,78.9343941975874,339.984854337873));
#246=VERTEX_POINT($,#245);
#247=CARTESIAN_POINT($,(57.0353878070938,78.9343941975874,339.984854337873));
#248=CARTESIAN_POINT($,(101.559196969899,79.146709127089,346.218193015627));
#249=CARTESIAN_POINT($,(137.592157731429,43.7444671173938,351.262811888365));
#250=CARTESIAN_POINT($,(137.376060244673,0,351.232558214035));
#251=B_SPLINE_CURVE_WITH_KNOTS($,3,(#247,#248,#249,#250),.UNSPECIFIED.,.F.,.F.,(4,4),(0,1),.UNSPECIFIED.);
#252=CARTESIAN_POINT($,(0,1));
#253=DIRECTION($,(1,0));
#254=VECTOR($,#253,1);
#255=LINE($,#252,#254);
#256=DEFINITIONAL_REPRESENTATION('pcurve',(#255),#106);
#257=PCURVE($,#115,#256);
#258=CARTESIAN_POINT($,(-0.374,78.9343941975874));
#259=CARTESIAN_POINT($,(-45.3320259068105,79.146709127089));
#260=CARTESIAN_POINT($,(-81.7163967384348,43.7444671173938));
#261=CARTESIAN_POINT($,(-81.498191769214,0));
#262=B_SPLINE_CURVE_WITH_KNOTS($,3,(#258,#259,#260,#261),.UNSPECIFIED.,.F.,.F.,(4,4),(0,1),.UNSPECIFIED.);
#263=DEFINITIONAL_REPRESENTATION('pcurve',(#262),#106);
#264=PCURVE($,#198,#263);
#265=SURFACE_CURVE($,#251,(#257,#264),.PCURVE_S1.);
#266=EDGE_CURVE($,#246,#225,#265,.T.);
#267=ORIENTED_EDGE($,$,$,#266,.F.);
#268=CARTESIAN_POINT($,(-39,27,451.4));
#269=DIRECTION($,(0.6156454652449,0.3329311726445,-0.7142391024054));
#270=VECTOR($,#269,1);
#271=LINE($,#268,#270);
#272=CARTESIAN_POINT($,(0,0));
#273=DIRECTION($,(0,1));
#274=VECTOR($,#273,0.0064106104979);
#275=LINE($,#272,#274);
#276=DEFINITIONAL_REPRESENTATION('pcurve',(#275),#106);
#277=PCURVE($,#115,#276);
#278=CARTESIAN_POINT($,(1,0));
#279=DIRECTION($,(0.3329311726445,0.9429511303782));
#280=VECTOR($,#279,1);
#281=LINE($,#278,#280);
#282=DEFINITIONAL_REPRESENTATION('pcurve',(#281),#106);
#283=PCURVE($,#188,#282);
#284=SURFACE_CURVE($,#271,(#277,#283),.PCURVE_S1.);
#285=EDGE_CURVE($,#200,#246,#284,.T.);
#286=ORIENTED_EDGE($,$,$,#285,.F.);
#287=EDGE_LOOP($,(#223,#244,#267,#286));
#288=FACE_OUTER_BOUND('',#287,.T.);
#289=ADVANCED_FACE('',(#288),#115,.T.);
#290=CARTESIAN_POINT($,(-39,-27,451.4));
#291=VERTEX_POINT($,#290);
#292=CARTESIAN_POINT($,(-22.8,0,473));
#293=CARTESIAN_POINT($,(-22.8,-14.9116882454314,473));
#294=CARTESIAN_POINT($,(-30.0529870527411,-27,463.329350596345));
#295=CARTESIAN_POINT($,(-39,-27,451.4));
#296=B_SPLINE_CURVE_WITH_KNOTS($,3,(#292,#293,#294,#295),.UNSPECIFIED.,.F.,.F.,(4,4),(0,1),.UNSPECIFIED.);
#297=CARTESIAN_POINT($,(0,0));
#298=DIRECTION($,(1,0));
#299=VECTOR($,#298,1);
#300=LINE($,#297,#299);
#301=DEFINITIONAL_REPRESENTATION('pcurve',(#300),#106);
#302=PCURVE($,#124,#301);
#303=CARTESIAN_POINT($,(-27,-0));
#304=CARTESIAN_POINT($,(-27,14.9116882454314));
#305=CARTESIAN_POINT($,(-14.9116882454314,27));
#306=CARTESIAN_POINT($,(-0,27));
#307=B_SPLINE_CURVE_WITH_KNOTS($,3,(#303,#304,#305,#306),.UNSPECIFIED.,.F.,.F.,(4,4),(0,1),.UNSPECIFIED.);
#308=DEFINITIONAL_REPRESENTATION('pcurve',(#307),#106);
#309=PCURVE($,#193,#308);
#310=SURFACE_CURVE($,#296,(#302,#309),.PCURVE_S1.);
#311=EDGE_CURVE($,#202,#291,#310,.T.);
#312=ORIENTED_EDGE($,$,$,#311,.T.);
#313=CARTESIAN_POINT($,(57.0353878070907,-78.9343941975846,339.984854337869));
#314=VERTEX_POINT($,#313);
#315=CARTESIAN_POINT($,(-39,-27,451.4));
#316=DIRECTION($,(0.6156454652449,-0.3329311726445,-0.7142391024054));
#317=VECTOR($,#316,1);
#318=LINE($,#315,#317);
#319=CARTESIAN_POINT($,(1,0));
#320=DIRECTION($,(0,1));
#321=VECTOR($,#320,0.0064106104979);
#322=LINE($,#319,#321);
#323=DEFINITIONAL_REPRESENTATION('pcurve',(#322),#106);
#324=PCURVE($,#124,#323);
#325=CARTESIAN_POINT($,(0,0));
#326=DIRECTION($,(0.0000000000033,1));
#327=VECTOR($,#326,0.0064106104979);
#328=LINE($,#325,#327);
#329=DEFINITIONAL_REPRESENTATION('pcurve',(#328),#106);
#330=PCURVE($,#133,#329);
#331=SURFACE_CURVE($,#318,(#324,#330),.PCURVE_S1.);
#332=EDGE_CURVE($,#291,#314,#331,.T.);
#333=ORIENTED_EDGE($,$,$,#332,.T.);
#334=CARTESIAN_POINT($,(137.376060244673,0,351.232558214035));
#335=CARTESIAN_POINT($,(137.161440965622,-43.4452345381621,351.202511488962));
#336=CARTESIAN_POINT($,(101.254633327204,-78.7235316013329,346.175554068746));
#337=CARTESIAN_POINT($,(57.0353878070938,-78.9343941975874,339.984854337873));
#338=B_SPLINE_CURVE_WITH_KNOTS($,3,(#334,#335,#336,#337),.UNSPECIFIED.,.F.,.F.,(4,4),(0,1),.UNSPECIFIED.);
#339=CARTESIAN_POINT($,(0,1));
#340=DIRECTION($,(1,0));
#341=VECTOR($,#340,1);
#342=LINE($,#339,#341);
#343=DEFINITIONAL_REPRESENTATION('pcurve',(#342),#106);
#344=PCURVE($,#124,#343);
#345=CARTESIAN_POINT($,(-81.498191769214,0));
#346=CARTESIAN_POINT($,(-81.2814794238619,-43.4452345381621));
#347=CARTESIAN_POINT($,(-45.0244920188527,-78.7235316013329));
#348=CARTESIAN_POINT($,(-0.374,-78.9343941975874));
#349=B_SPLINE_CURVE_WITH_KNOTS($,3,(#345,#346,#347,#348),.UNSPECIFIED.,.F.,.F.,(4,4),(0,1),.UNSPECIFIED.);
#350=DEFINITIONAL_REPRESENTATION('pcurve',(#349),#106);
#351=PCURVE($,#198,#350);
#352=SURFACE_CURVE($,#338,(#344,#351),.PCURVE_S1.);
#353=EDGE_CURVE($,#225,#314,#352,.T.);
#354=ORIENTED_EDGE($,$,$,#353,.F.);
#355=ORIENTED_EDGE($,$,$,#243,.F.);
#356=EDGE_LOOP($,(#312,#333,#354,#355));
#357=FACE_OUTER_BOUND('',#356,.T.);
#358=ADVANCED_FACE('',(#357),#124,.T.);
#359=CARTESIAN_POINT($,(-55.2,-0,429.8));
#360=VERTEX_POINT($,#359);
#361=CARTESIAN_POINT($,(-39,-27,451.4));
#362=CARTESIAN_POINT($,(-47.9470129472588,-27,439.470649403655));
#363=CARTESIAN_POINT($,(-55.2,-14.9116882454314,429.8));
#364=CARTESIAN_POINT($,(-55.2,-0,429.8));
#365=B_SPLINE_CURVE_WITH_KNOTS($,3,(#361,#362,#363,#364),.UNSPECIFIED.,.F.,.F.,(4,4),(0,1),.UNSPECIFIED.);
#366=CARTESIAN_POINT($,(0,0));
#367=DIRECTION($,(1,0));
#368=VECTOR($,#367,1);
#369=LINE($,#366,#368);
#370=DEFINITIONAL_REPRESENTATION('pcurve',(#369),#106);
#371=PCURVE($,#133,#370);
#372=CARTESIAN_POINT($,(-0,27));
#373=CARTESIAN_POINT($,(14.9116882454314,27));
#374=CARTESIAN_POINT($,(27,14.9116882454314));
#375=CARTESIAN_POINT($,(27,0));
#376=B_SPLINE_CURVE_WITH_KNOTS($,3,(#372,#373,#374,#375),.UNSPECIFIED.,.F.,.F.,(4,4),(0,1),.UNSPECIFIED.);
#377=DEFINITIONAL_REPRESENTATION('pcurve',(#376),#106);
#378=PCURVE($,#193,#377);
#379=SURFACE_CURVE($,#365,(#371,#378),.PCURVE_S1.);
#380=EDGE_CURVE($,#291,#360,#379,.T.);
#381=ORIENTED_EDGE($,$,$,#380,.T.);
#382=CARTESIAN_POINT($,(-23.3052846304863,-0,328.737150461712));
#383=VERTEX_POINT($,#382);
#384=CARTESIAN_POINT($,(-55.2,-0,429.8));
#385=DIRECTION($,(0.3009608815837,-0,-0.9536364861709));
#386=VECTOR($,#385,1);
#387=LINE($,#384,#386);
#388=CARTESIAN_POINT($,(1,0));
#389=DIRECTION($,(0,1));
#390=VECTOR($,#389,0.009436073597);
#391=LINE($,#388,#390);
#392=DEFINITIONAL_REPRESENTATION('pcurve',(#391),#106);
#393=PCURVE($,#133,#392);
#394=CARTESIAN_POINT($,(0,0));
#395=DIRECTION($,(0,1));
#396=VECTOR($,#395,0.009436073597);
#397=LINE($,#394,#396);
#398=DEFINITIONAL_REPRESENTATION('pcurve',(#397),#106);
#399=PCURVE($,#142,#398);
#400=SURFACE_CURVE($,#387,(#393,#399),.PCURVE_S1.);
#401=EDGE_CURVE($,#360,#383,#400,.T.);
#402=ORIENTED_EDGE($,$,$,#401,.T.);
#403=CARTESIAN_POINT($,(57.0353878070938,-78.9343941975874,339.984854337873));
#404=CARTESIAN_POINT($,(12.5115786442891,-79.146709127089,333.751515660119));
#405=CARTESIAN_POINT($,(-23.5213821172412,-43.7444671173938,328.706896787381));
#406=CARTESIAN_POINT($,(-23.3052846304854,-0,328.737150461712));
#407=B_SPLINE_CURVE_WITH_KNOTS($,3,(#403,#404,#405,#406),.UNSPECIFIED.,.F.,.F.,(4,4),(0,1),.UNSPECIFIED.);
#408=CARTESIAN_POINT($,(0,1));
#409=DIRECTION($,(1,-0.0000000000001));
#410=VECTOR($,#409,1);
#411=LINE($,#408,#410);
#412=DEFINITIONAL_REPRESENTATION('pcurve',(#411),#106);
#413=PCURVE($,#133,#412);
#414=CARTESIAN_POINT($,(-0.374,-78.9343941975874));
#415=CARTESIAN_POINT($,(44.5840259068105,-79.146709127089));
#416=CARTESIAN_POINT($,(80.9683967384348,-43.7444671173938));
#417=CARTESIAN_POINT($,(80.750191769214,-0));
#418=B_SPLINE_CURVE_WITH_KNOTS($,3,(#414,#415,#416,#417),.UNSPECIFIED.,.F.,.F.,(4,4),(0,1),.UNSPECIFIED.);
#419=DEFINITIONAL_REPRESENTATION('pcurve',(#418),#106);
#420=PCURVE($,#198,#419);
#421=SURFACE_CURVE($,#407,(#413,#420),.PCURVE_S1.);
#422=EDGE_CURVE($,#314,#383,#421,.T.);
#423=ORIENTED_EDGE($,$,$,#422,.F.);
#424=ORIENTED_EDGE($,$,$,#332,.F.);
#425=EDGE_LOOP($,(#381,#402,#423,#424));
#426=FACE_OUTER_BOUND('',#425,.T.);
#427=ADVANCED_FACE('',(#426),#133,.T.);
#428=CARTESIAN_POINT($,(-39.0282743195276,26.9999588766588,451.362300907297));
#429=VERTEX_POINT($,#428);
#430=CARTESIAN_POINT($,(-55.2,-0,429.8));
#431=CARTESIAN_POINT($,(-55.2,14.8932885460388,429.8));
#432=CARTESIAN_POINT($,(-47.9642338368889,26.9739651976979,439.447688217481));
#433=CARTESIAN_POINT($,(-39.0282743195276,26.9999588766588,451.362300907297));
#434=B_SPLINE_CURVE_WITH_KNOTS($,3,(#430,#431,#432,#433),.UNSPECIFIED.,.F.,.F.,(4,4),(0,1),.UNSPECIFIED.);
#435=CARTESIAN_POINT($,(0,0));
#436=DIRECTION($,(1,0));
#437=VECTOR($,#436,1);
#438=LINE($,#435,#437);
#439=DEFINITIONAL_REPRESENTATION('pcurve',(#438),#106);
#440=PCURVE($,#142,#439);
#441=CARTESIAN_POINT($,(27,0));
#442=CARTESIAN_POINT($,(27,-14.8932885460388));
#443=CARTESIAN_POINT($,(14.9403897281482,-26.9739651976979));
#444=CARTESIAN_POINT($,(0.0471238658793,-26.9999588766588));
#445=B_SPLINE_CURVE_WITH_KNOTS($,3,(#441,#442,#443,#444),.UNSPECIFIED.,.F.,.F.,(4,4),(0,1),.UNSPECIFIED.);
#446=DEFINITIONAL_REPRESENTATION('pcurve',(#445),#106);
#447=PCURVE($,#193,#446);
#448=SURFACE_CURVE($,#434,(#440,#447),.PCURVE_S1.);
#449=EDGE_CURVE($,#360,#429,#448,.T.);
#450=ORIENTED_EDGE($,$,$,#449,.T.);
#451=CARTESIAN_POINT($,(56.8989530687439,78.9336297823618,339.965753457972));
#452=VERTEX_POINT($,#451);
#453=CARTESIAN_POINT($,(-39.0282743195276,26.9999588766588,451.362300907297));
#454=DIRECTION($,(0.6152680043369,0.3330975670412,-0.7144867344258));
#455=VECTOR($,#454,1);
#456=LINE($,#453,#455);
#457=CARTESIAN_POINT($,(1,0));
#458=DIRECTION($,(-0.0000000000041,1));
#459=VECTOR($,#458,0.006413903759);
#460=LINE($,#457,#459);
#461=DEFINITIONAL_REPRESENTATION('pcurve',(#460),#106);
#462=PCURVE($,#142,#461);
#463=CARTESIAN_POINT($,(0,0));
#464=DIRECTION($,(0.0000000000496,1));
#465=VECTOR($,#464,0.006413903759);
#466=LINE($,#463,#465);
#467=DEFINITIONAL_REPRESENTATION('pcurve',(#466),#106);
#468=PCURVE($,#147,#467);
#469=SURFACE_CURVE($,#456,(#462,#468),.PCURVE_S1.);
#470=EDGE_CURVE($,#429,#452,#469,.T.);
#471=ORIENTED_EDGE($,$,$,#470,.T.);
#472=CARTESIAN_POINT($,(-23.3052846304854,-0,328.737150461712));
#473=CARTESIAN_POINT($,(-23.0909236480678,43.392947726492,328.767161025224));
#474=CARTESIAN_POINT($,(12.7329895745014,78.64933298471,333.782513217177));
#475=CARTESIAN_POINT($,(56.8989530687443,78.933629782362,339.965753457972));
#476=B_SPLINE_CURVE_WITH_KNOTS($,3,(#472,#473,#474,#475),.UNSPECIFIED.,.F.,.F.,(4,4),(0,1),.UNSPECIFIED.);
#477=CARTESIAN_POINT($,(0,1));
#478=DIRECTION($,(1,0));
#479=VECTOR($,#478,1);
#480=LINE($,#477,#479);
#481=DEFINITIONAL_REPRESENTATION('pcurve',(#480),#106);
#482=PCURVE($,#142,#481);
#483=CARTESIAN_POINT($,(80.750191769214,-0));
#484=CARTESIAN_POINT($,(80.5337402395235,43.392947726492));
#485=CARTESIAN_POINT($,(44.3604556749793,78.64933298471));
#486=CARTESIAN_POINT($,(-0.236234687089,78.933629782362));
#487=B_SPLINE_CURVE_WITH_KNOTS($,3,(#483,#484,#485,#486),.UNSPECIFIED.,.F.,.F.,(4,4),(0,1),.UNSPECIFIED.);
#488=DEFINITIONAL_REPRESENTATION('pcurve',(#487),#106);
#489=PCURVE($,#198,#488);
#490=SURFACE_CURVE($,#476,(#482,#489),.PCURVE_S1.);
#491=EDGE_CURVE($,#383,#452,#490,.T.);
#492=ORIENTED_EDGE($,$,$,#491,.F.);
#493=ORIENTED_EDGE($,$,$,#401,.F.);
#494=EDGE_LOOP($,(#450,#471,#492,#493));
#495=FACE_OUTER_BOUND('',#494,.T.);
#496=ADVANCED_FACE('',(#495),#142,.T.);
#497=CARTESIAN_POINT($,(-39.0272271225081,25.9999603997455,451.36369716999));
#498=VERTEX_POINT($,#497);
#499=CARTESIAN_POINT($,(-39.0282743195276,26.9999588766588,451.362300907297));
#500=DIRECTION($,(0.0010471970195,-0.9999984769133,0.0013962626927));
#501=VECTOR($,#500,1);
#502=LINE($,#499,#501);
#503=CARTESIAN_POINT($,(0,0));
#504=DIRECTION($,(1,0));
#505=VECTOR($,#504,0.9999999999505);
#506=LINE($,#503,#505);
#507=DEFINITIONAL_REPRESENTATION('pcurve',(#506),#106);
#508=PCURVE($,#147,#507);
#509=CARTESIAN_POINT($,(0.0471238658793,-26.9999588766588));
#510=DIRECTION($,(-0.0017453283659,0.9999984769133));
#511=VECTOR($,#510,1);
#512=LINE($,#509,#511);
#513=DEFINITIONAL_REPRESENTATION('pcurve',(#512),#106);
#514=PCURVE($,#193,#513);
#515=SURFACE_CURVE($,#502,(#508,#514),.PCURVE_S1.);
#516=EDGE_CURVE($,#429,#498,#515,.T.);
#517=ORIENTED_EDGE($,$,$,#516,.T.);
#518=CARTESIAN_POINT($,(56.9006815544458,77.9336230953766,339.965995446179));
#519=VERTEX_POINT($,#518);
#520=CARTESIAN_POINT($,(-39.0272271225081,25.9999603997455,451.36369716999));
#521=DIRECTION($,(0.6152674761287,0.3330948627314,-0.7144884500397));
#522=VECTOR($,#521,1);
#523=LINE($,#520,#522);
#524=CARTESIAN_POINT($,(1,0));
#525=DIRECTION($,(-0.0000000000635,1));
#526=VECTOR($,#525,0.0064138527006);
#527=LINE($,#524,#526);
#528=DEFINITIONAL_REPRESENTATION('pcurve',(#527),#106);
#529=PCURVE($,#147,#528);
#530=CARTESIAN_POINT($,(0,0));
#531=DIRECTION($,(0,1));
#532=VECTOR($,#531,0.0064138527006);
#533=LINE($,#530,#532);
#534=DEFINITIONAL_REPRESENTATION('pcurve',(#533),#106);
#535=PCURVE($,#156,#534);
#536=SURFACE_CURVE($,#523,(#529,#535),.PCURVE_S1.);
#537=EDGE_CURVE($,#498,#519,#536,.T.);
#538=ORIENTED_EDGE($,$,$,#537,.T.);
#539=CARTESIAN_POINT($,(56.8989530687439,78.9336297823618,339.965753457972));
#540=DIRECTION($,(0.0017284715137,-0.9999984769133,0.0002419862213));
#541=VECTOR($,#540,1);
#542=LINE($,#539,#541);
#543=CARTESIAN_POINT($,(0,1));
#544=DIRECTION($,(1,-0.0000000000006));
#545=VECTOR($,#544,0.9999917899801);
#546=LINE($,#543,#545);
#547=DEFINITIONAL_REPRESENTATION('pcurve',(#546),#106);
#548=PCURVE($,#147,#547);
#549=CARTESIAN_POINT($,(-0.236234687089,78.933629782362));
#550=DIRECTION($,(-0.0017453283659,-0.9999984769133));
#551=VECTOR($,#550,1);
#552=LINE($,#549,#551);
#553=DEFINITIONAL_REPRESENTATION('pcurve',(#552),#106);
#554=PCURVE($,#198,#553);
#555=SURFACE_CURVE($,#542,(#548,#554),.PCURVE_S1.);
#556=EDGE_CURVE($,#452,#519,#555,.T.);
#557=ORIENTED_EDGE($,$,$,#556,.F.);
#558=ORIENTED_EDGE($,$,$,#470,.F.);
#559=EDGE_LOOP($,(#517,#538,#557,#558));
#560=FACE_OUTER_BOUND('',#559,.T.);
#561=ADVANCED_FACE('',(#560),#147,.T.);
#562=CARTESIAN_POINT($,(-54.6,-0,430.6));
#563=VERTEX_POINT($,#562);
#564=CARTESIAN_POINT($,(-39.027227122508,25.9999603997455,451.363697169989));
#565=CARTESIAN_POINT($,(-47.6322251762634,25.974929449635,439.890366431649));
#566=CARTESIAN_POINT($,(-54.6,14.3416852665559,430.6));
#567=CARTESIAN_POINT($,(-54.6,-0,430.6));
#568=B_SPLINE_CURVE_WITH_KNOTS($,3,(#564,#565,#566,#567),.UNSPECIFIED.,.F.,.F.,(4,4),(0,1),.UNSPECIFIED.);
#569=CARTESIAN_POINT($,(0,0));
#570=DIRECTION($,(1,0));
#571=VECTOR($,#570,1);
#572=LINE($,#569,#571);
#573=DEFINITIONAL_REPRESENTATION('pcurve',(#572),#106);
#574=PCURVE($,#156,#573);
#575=CARTESIAN_POINT($,(0.0453785375134,-25.9999603997455));
#576=CARTESIAN_POINT($,(14.387041960439,-25.974929449635));
#577=CARTESIAN_POINT($,(26,-14.3416852665559));
#578=CARTESIAN_POINT($,(26,0));
#579=B_SPLINE_CURVE_WITH_KNOTS($,3,(#575,#576,#577,#578),.UNSPECIFIED.,.F.,.F.,(4,4),(0,1),.UNSPECIFIED.);
#580=DEFINITIONAL_REPRESENTATION('pcurve',(#579),#106);
#581=PCURVE($,#193,#580);
#582=SURFACE_CURVE($,#568,(#574,#581),.PCURVE_S1.);
#583=EDGE_CURVE($,#498,#563,#582,.T.);
#584=ORIENTED_EDGE($,$,$,#583,.T.);
#585=CARTESIAN_POINT($,(-22.314933625994,-0,328.875799722341));
#586=VERTEX_POINT($,#585);
#587=CARTESIAN_POINT($,(-54.6,-0,430.6));
#588=DIRECTION($,(0.3025082215572,-0,-0.9531467756281));
#589=VECTOR($,#588,1);
#590=LINE($,#587,#589);
#591=CARTESIAN_POINT($,(1,0));
#592=DIRECTION($,(0,1));
#593=VECTOR($,#592,0.0093699117125);
#594=LINE($,#591,#593);
#595=DEFINITIONAL_REPRESENTATION('pcurve',(#594),#106);
#596=PCURVE($,#156,#595);
#597=CARTESIAN_POINT($,(0,0));
#598=DIRECTION($,(0,1));
#599=VECTOR($,#598,0.0093699117125);
#600=LINE($,#597,#599);
#601=DEFINITIONAL_REPRESENTATION('pcurve',(#600),#106);
#602=PCURVE($,#165,#601);
#603=SURFACE_CURVE($,#590,(#596,#602),.PCURVE_S1.);
#604=EDGE_CURVE($,#563,#586,#603,.T.);
#605=ORIENTED_EDGE($,$,$,#604,.T.);
#606=CARTESIAN_POINT($,(56.9006815544489,77.9336230953739,339.96599544618));
#607=CARTESIAN_POINT($,(13.2810171502005,77.6503332688164,333.859237144179));
#608=CARTESIAN_POINT($,(-22.1005442849121,42.8413720920468,328.905814256071));
#609=CARTESIAN_POINT($,(-22.3149336259919,-0,328.875799722342));
#610=B_SPLINE_CURVE_WITH_KNOTS($,3,(#606,#607,#608,#609),.UNSPECIFIED.,.F.,.F.,(4,4),(0,1),.UNSPECIFIED.);
#611=CARTESIAN_POINT($,(0,1));
#612=DIRECTION($,(1,0));
#613=VECTOR($,#612,1);
#614=LINE($,#611,#613);
#615=DEFINITIONAL_REPRESENTATION('pcurve',(#614),#106);
#616=PCURVE($,#156,#615);
#617=CARTESIAN_POINT($,(-0.2379800297842,77.9336230953739));
#618=CARTESIAN_POINT($,(43.8070834813326,77.6503332688164));
#619=CARTESIAN_POINT($,(79.533702239551,42.8413720920468));
#620=CARTESIAN_POINT($,(79.7501824044706,-0));
#621=B_SPLINE_CURVE_WITH_KNOTS($,3,(#617,#618,#619,#620),.UNSPECIFIED.,.F.,.F.,(4,4),(0,1),.UNSPECIFIED.);
#622=DEFINITIONAL_REPRESENTATION('pcurve',(#621),#106);
#623=PCURVE($,#198,#622);
#624=SURFACE_CURVE($,#610,(#616,#623),.PCURVE_S1.);
#625=EDGE_CURVE($,#519,#586,#624,.T.);
#626=ORIENTED_EDGE($,$,$,#625,.F.);
#627=ORIENTED_EDGE($,$,$,#537,.F.);
#628=EDGE_LOOP($,(#584,#605,#626,#627));
#629=FACE_OUTER_BOUND('',#628,.T.);
#630=ADVANCED_FACE('',(#629),#156,.T.);
#631=CARTESIAN_POINT($,(-39,-26,451.4));
#632=VERTEX_POINT($,#631);
#633=CARTESIAN_POINT($,(-54.6,-0,430.6));
#634=CARTESIAN_POINT($,(-54.6,-14.3594034956006,430.6));
#635=CARTESIAN_POINT($,(-47.6156420973604,-26,439.912477203519));
#636=CARTESIAN_POINT($,(-39,-26,451.4));
#637=B_SPLINE_CURVE_WITH_KNOTS($,3,(#633,#634,#635,#636),.UNSPECIFIED.,.F.,.F.,(4,4),(0,1),.UNSPECIFIED.);
#638=CARTESIAN_POINT($,(0,0));
#639=DIRECTION($,(1,0));
#640=VECTOR($,#639,1);
#641=LINE($,#638,#640);
#642=DEFINITIONAL_REPRESENTATION('pcurve',(#641),#106);
#643=PCURVE($,#165,#642);
#644=CARTESIAN_POINT($,(26,0));
#645=CARTESIAN_POINT($,(26,14.3594034956006));
#646=CARTESIAN_POINT($,(14.3594034956006,26));
#647=CARTESIAN_POINT($,(-0,26));
#648=B_SPLINE_CURVE_WITH_KNOTS($,3,(#644,#645,#646,#647),.UNSPECIFIED.,.F.,.F.,(4,4),(0,1),.UNSPECIFIED.);
#649=DEFINITIONAL_REPRESENTATION('pcurve',(#648),#106);
#650=PCURVE($,#193,#649);
#651=SURFACE_CURVE($,#637,(#643,#650),.PCURVE_S1.);
#652=EDGE_CURVE($,#563,#632,#651,.T.);
#653=ORIENTED_EDGE($,$,$,#652,.T.);
#654=CARTESIAN_POINT($,(57.0353878070956,-77.9343856541683,339.984854337875));
#655=VERTEX_POINT($,#654);
#656=CARTESIAN_POINT($,(-39,-26,451.4));
#657=DIRECTION($,(0.6156454764707,-0.3329311239467,-0.7142391154289));
#658=VECTOR($,#657,1);
#659=LINE($,#656,#658);
#660=CARTESIAN_POINT($,(1,0));
#661=DIRECTION($,(-0.0000000000034,1));
#662=VECTOR($,#661,0.0064106106148);
#663=LINE($,#660,#662);
#664=DEFINITIONAL_REPRESENTATION('pcurve',(#663),#106);
#665=PCURVE($,#165,#664);
#666=CARTESIAN_POINT($,(0,0));
#667=DIRECTION($,(0,1));
#668=VECTOR($,#667,0.0064106106148);
#669=LINE($,#666,#668);
#670=DEFINITIONAL_REPRESENTATION('pcurve',(#669),#106);
#671=PCURVE($,#174,#670);
#672=SURFACE_CURVE($,#659,(#665,#671),.PCURVE_S1.);
#673=EDGE_CURVE($,#632,#655,#672,.T.);
#674=ORIENTED_EDGE($,$,$,#673,.T.);
#675=CARTESIAN_POINT($,(-22.3149336259919,-0,328.875799722342));
#676=CARTESIAN_POINT($,(-22.5310783980673,-43.1921594590321,328.845539428061));
#677=CARTESIAN_POINT($,(13.0584999713195,-78.1466735153861,333.828084712174));
#678=CARTESIAN_POINT($,(57.0353878070937,-77.9343856541672,339.984854337873));
#679=B_SPLINE_CURVE_WITH_KNOTS($,3,(#675,#676,#677,#678),.UNSPECIFIED.,.F.,.F.,(4,4),(0,1),.UNSPECIFIED.);
#680=CARTESIAN_POINT($,(0,1));
#681=DIRECTION($,(1,0));
#682=VECTOR($,#681,1);
#683=LINE($,#680,#682);
#684=DEFINITIONAL_REPRESENTATION('pcurve',(#683),#106);
#685=PCURVE($,#165,#684);
#686=CARTESIAN_POINT($,(79.7501824044706,-0));
#687=CARTESIAN_POINT($,(79.9684351201593,-43.1921594590321));
#688=CARTESIAN_POINT($,(44.0317707504803,-78.1466735153861));
#689=CARTESIAN_POINT($,(-0.374,-77.9343856541672));
#690=B_SPLINE_CURVE_WITH_KNOTS($,3,(#686,#687,#688,#689),.UNSPECIFIED.,.F.,.F.,(4,4),(0,1),.UNSPECIFIED.);
#691=DEFINITIONAL_REPRESENTATION('pcurve',(#690),#106);
#692=PCURVE($,#198,#691);
#693=SURFACE_CURVE($,#679,(#685,#692),.PCURVE_S1.);
#694=EDGE_CURVE($,#586,#655,#693,.T.);
#695=ORIENTED_EDGE($,$,$,#694,.F.);
#696=ORIENTED_EDGE($,$,$,#604,.F.);
#697=EDGE_LOOP($,(#653,#674,#695,#696));
#698=FACE_OUTER_BOUND('',#697,.T.);
#699=ADVANCED_FACE('',(#698),#165,.T.);
#700=CARTESIAN_POINT($,(-23.4,-0,472.2));
#701=VERTEX_POINT($,#700);
#702=CARTESIAN_POINT($,(-39,-26,451.4));
#703=CARTESIAN_POINT($,(-30.3843579026396,-26,462.88752279648));
#704=CARTESIAN_POINT($,(-23.4,-14.3594034956006,472.2));
#705=CARTESIAN_POINT($,(-23.4,-0,472.2));
#706=B_SPLINE_CURVE_WITH_KNOTS($,3,(#702,#703,#704,#705),.UNSPECIFIED.,.F.,.F.,(4,4),(0,1),.UNSPECIFIED.);
#707=CARTESIAN_POINT($,(0,0));
#708=DIRECTION($,(1,0));
#709=VECTOR($,#708,1);
#710=LINE($,#707,#709);
#711=DEFINITIONAL_REPRESENTATION('pcurve',(#710),#106);
#712=PCURVE($,#174,#711);
#713=CARTESIAN_POINT($,(-0,26));
#714=CARTESIAN_POINT($,(-14.3594034956006,26));
#715=CARTESIAN_POINT($,(-26,14.3594034956006));
#716=CARTESIAN_POINT($,(-26,0));
#717=B_SPLINE_CURVE_WITH_KNOTS($,3,(#713,#714,#715,#716),.UNSPECIFIED.,.F.,.F.,(4,4),(0,1),.UNSPECIFIED.);
#718=DEFINITIONAL_REPRESENTATION('pcurve',(#717),#106);
#719=PCURVE($,#193,#718);
#720=SURFACE_CURVE($,#706,(#712,#719),.PCURVE_S1.);
#721=EDGE_CURVE($,#632,#701,#720,.T.);
#722=ORIENTED_EDGE($,$,$,#721,.T.);
#723=CARTESIAN_POINT($,(136.385709240184,0,351.093908953411));
#724=VERTEX_POINT($,#723);
#725=CARTESIAN_POINT($,(-23.4,-0,472.2));
#726=DIRECTION($,(0.7969569409226,0,-0.6040361200419));
#727=VECTOR($,#726,1);
#728=LINE($,#725,#727);
#729=CARTESIAN_POINT($,(1,0));
#730=DIRECTION($,(0,1));
#731=VECTOR($,#730,0.0049876609411);
#732=LINE($,#729,#731);
#733=DEFINITIONAL_REPRESENTATION('pcurve',(#732),#106);
#734=PCURVE($,#174,#733);
#735=CARTESIAN_POINT($,(0,0));
#736=DIRECTION($,(0,1));
#737=VECTOR($,#736,0.0049876609411);
#738=LINE($,#735,#737);
#739=DEFINITIONAL_REPRESENTATION('pcurve',(#738),#106);
#740=PCURVE($,#183,#739);
#741=SURFACE_CURVE($,#728,(#734,#740),.PCURVE_S1.);
#742=EDGE_CURVE($,#701,#724,#741,.T.);
#743=ORIENTED_EDGE($,$,$,#742,.T.);
#744=CARTESIAN_POINT($,(57.0353878070938,-77.9343856541672,339.984854337873));
#745=CARTESIAN_POINT($,(100.707658522367,-77.7235682589177,346.098977529792));
#746=CARTESIAN_POINT($,(136.171061649949,-42.8929779596101,351.063858264763));
#747=CARTESIAN_POINT($,(136.385709240179,0,351.093908953404));
#748=B_SPLINE_CURVE_WITH_KNOTS($,3,(#744,#745,#746,#747),.UNSPECIFIED.,.F.,.F.,(4,4),(0,1),.UNSPECIFIED.);
#749=CARTESIAN_POINT($,(0,1));
#750=DIRECTION($,(1,0));
#751=VECTOR($,#750,1);
#752=LINE($,#749,#751);
#753=DEFINITIONAL_REPRESENTATION('pcurve',(#752),#106);
#754=PCURVE($,#174,#753);
#755=CARTESIAN_POINT($,(-0.374,-77.9343856541672));
#756=CARTESIAN_POINT($,(-44.4721828631759,-77.7235682589177));
#757=CARTESIAN_POINT($,(-80.2814414718357,-42.8929779596101));
#758=CARTESIAN_POINT($,(-80.4981824044706,0));
#759=B_SPLINE_CURVE_WITH_KNOTS($,3,(#755,#756,#757,#758),.UNSPECIFIED.,.F.,.F.,(4,4),(0,1),.UNSPECIFIED.);
#760=DEFINITIONAL_REPRESENTATION('pcurve',(#759),#106);
#761=PCURVE($,#198,#760);
#762=SURFACE_CURVE($,#748,(#754,#761),.PCURVE_S1.);
#763=EDGE_CURVE($,#655,#724,#762,.T.);
#764=ORIENTED_EDGE($,$,$,#763,.F.);
#765=ORIENTED_EDGE($,$,$,#673,.F.);
#766=EDGE_LOOP($,(#722,#743,#764,#765));
#767=FACE_OUTER_BOUND('',#766,.T.);
#768=ADVANCED_FACE('',(#767),#174,.T.);
#769=CARTESIAN_POINT($,(-39,26,451.4));
#770=VERTEX_POINT($,#769);
#771=CARTESIAN_POINT($,(-23.4,0,472.2));
#772=CARTESIAN_POINT($,(-23.4,14.3594034956006,472.2));
#773=CARTESIAN_POINT($,(-30.3843579026396,26,462.88752279648));
#774=CARTESIAN_POINT($,(-39,26,451.4));
#775=B_SPLINE_CURVE_WITH_KNOTS($,3,(#771,#772,#773,#774),.UNSPECIFIED.,.F.,.F.,(4,4),(0,1),.UNSPECIFIED.);
#776=CARTESIAN_POINT($,(0,0));
#777=DIRECTION($,(1,0));
#778=VECTOR($,#777,1);
#779=LINE($,#776,#778);
#780=DEFINITIONAL_REPRESENTATION('pcurve',(#779),#106);
#781=PCURVE($,#183,#780);
#782=CARTESIAN_POINT($,(-26,-0));
#783=CARTESIAN_POINT($,(-26,-14.3594034956006));
#784=CARTESIAN_POINT($,(-14.3594034956006,-26));
#785=CARTESIAN_POINT($,(0,-26));
#786=B_SPLINE_CURVE_WITH_KNOTS($,3,(#782,#783,#784,#785),.UNSPECIFIED.,.F.,.F.,(4,4),(0,1),.UNSPECIFIED.);
#787=DEFINITIONAL_REPRESENTATION('pcurve',(#786),#106);
#788=PCURVE($,#193,#787);
#789=SURFACE_CURVE($,#775,(#781,#788),.PCURVE_S1.);
#790=EDGE_CURVE($,#701,#770,#789,.T.);
#791=ORIENTED_EDGE($,$,$,#790,.T.);
#792=CARTESIAN_POINT($,(57.0353878070956,77.9343856541683,339.984854337875));
#793=VERTEX_POINT($,#792);
#794=CARTESIAN_POINT($,(-39,26,451.4));
#795=DIRECTION($,(0.6156454764707,0.3329311239467,-0.7142391154289));
#796=VECTOR($,#795,1);
#797=LINE($,#794,#796);
#798=CARTESIAN_POINT($,(1,0));
#799=DIRECTION($,(0,1));
#800=VECTOR($,#799,0.0064106106148);
#801=LINE($,#798,#800);
#802=DEFINITIONAL_REPRESENTATION('pcurve',(#801),#106);
#803=PCURVE($,#183,#802);
#804=CARTESIAN_POINT($,(0,0));
#805=DIRECTION($,(0.3329311239467,0.9429511475721));
#806=VECTOR($,#805,1);
#807=LINE($,#804,#806);
#808=DEFINITIONAL_REPRESENTATION('pcurve',(#807),#106);
#809=PCURVE($,#188,#808);
#810=SURFACE_CURVE($,#797,(#803,#809),.PCURVE_S1.);
#811=EDGE_CURVE($,#770,#793,#810,.T.);
#812=ORIENTED_EDGE($,$,$,#811,.T.);
#813=CARTESIAN_POINT($,(136.385709240179,0,351.093908953404));
#814=CARTESIAN_POINT($,(136.601854012255,43.1921594590321,351.124169247685));
#815=CARTESIAN_POINT($,(101.012275642868,78.1466735153861,346.141623963573));
#816=CARTESIAN_POINT($,(57.0353878070938,77.9343856541672,339.984854337873));
#817=B_SPLINE_CURVE_WITH_KNOTS($,3,(#813,#814,#815,#816),.UNSPECIFIED.,.F.,.F.,(4,4),(0,1),.UNSPECIFIED.);
#818=CARTESIAN_POINT($,(0,1));
#819=DIRECTION($,(1,0));
#820=VECTOR($,#819,1);
#821=LINE($,#818,#820);
#822=DEFINITIONAL_REPRESENTATION('pcurve',(#821),#106);
#823=PCURVE($,#183,#822);
#824=CARTESIAN_POINT($,(-80.4981824044706,0));
#825=CARTESIAN_POINT($,(-80.7164351201593,43.1921594590321));
#826=CARTESIAN_POINT($,(-44.7797707504803,78.1466735153861));
#827=CARTESIAN_POINT($,(-0.374,77.9343856541672));
#828=B_SPLINE_CURVE_WITH_KNOTS($,3,(#824,#825,#826,#827),.UNSPECIFIED.,.F.,.F.,(4,4),(0,1),.UNSPECIFIED.);
#829=DEFINITIONAL_REPRESENTATION('pcurve',(#828),#106);
#830=PCURVE($,#198,#829);
#831=SURFACE_CURVE($,#817,(#823,#830),.PCURVE_S1.);
#832=EDGE_CURVE($,#724,#793,#831,.T.);
#833=ORIENTED_EDGE($,$,$,#832,.F.);
#834=ORIENTED_EDGE($,$,$,#742,.F.);
#835=EDGE_LOOP($,(#791,#812,#833,#834));
#836=FACE_OUTER_BOUND('',#835,.T.);
#837=ADVANCED_FACE('',(#836),#183,.T.);
#838=CARTESIAN_POINT($,(-39,26,451.4));
#839=DIRECTION($,(0,1,0));
#840=VECTOR($,#839,1);
#841=LINE($,#838,#840);
#842=CARTESIAN_POINT($,(0,0));
#843=DIRECTION($,(1,0));
#844=VECTOR($,#843,1);
#845=LINE($,#842,#844);
#846=DEFINITIONAL_REPRESENTATION('pcurve',(#845),#106);
#847=PCURVE($,#188,#846);
#848=CARTESIAN_POINT($,(0,-26));
#849=DIRECTION($,(0,-1));
#850=VECTOR($,#849,1);
#851=LINE($,#848,#850);
#852=DEFINITIONAL_REPRESENTATION('pcurve',(#851),#106);
#853=PCURVE($,#193,#852);
#854=SURFACE_CURVE($,#841,(#847,#853),.PCURVE_S1.);
#855=EDGE_CURVE($,#770,#200,#854,.T.);
#856=ORIENTED_EDGE($,$,$,#855,.T.);
#857=ORIENTED_EDGE($,$,$,#285,.T.);
#858=CARTESIAN_POINT($,(57.0353878070956,77.9343856541683,339.984854337875));
#859=DIRECTION($,(0,1,0));
#860=VECTOR($,#859,1);
#861=LINE($,#858,#860);
#862=CARTESIAN_POINT($,(51.9343856541672,147.092251305675));
#863=DIRECTION($,(1,0));
#864=VECTOR($,#863,1);
#865=LINE($,#862,#864);
#866=DEFINITIONAL_REPRESENTATION('pcurve',(#865),#106);
#867=PCURVE($,#188,#866);
#868=CARTESIAN_POINT($,(-0.374,77.9343856541672));
#869=DIRECTION($,(0,1));
#870=VECTOR($,#869,1);
#871=LINE($,#868,#870);
#872=DEFINITIONAL_REPRESENTATION('pcurve',(#871),#106);
#873=PCURVE($,#198,#872);
#874=SURFACE_CURVE($,#861,(#867,#873),.PCURVE_S1.);
#875=EDGE_CURVE($,#793,#246,#874,.T.);
#876=ORIENTED_EDGE($,$,$,#875,.F.);
#877=ORIENTED_EDGE($,$,$,#811,.F.);
#878=EDGE_LOOP($,(#856,#857,#876,#877));
#879=FACE_OUTER_BOUND('',#878,.T.);
#880=ADVANCED_FACE('',(#879),#188,.T.);
#881=ORIENTED_EDGE($,$,$,#855,.F.);
#882=ORIENTED_EDGE($,$,$,#790,.F.);
#883=ORIENTED_EDGE($,$,$,#721,.F.);
#884=ORIENTED_EDGE($,$,$,#652,.F.);
#885=ORIENTED_EDGE($,$,$,#583,.F.);
#886=ORIENTED_EDGE($,$,$,#516,.F.);
#887=ORIENTED_EDGE($,$,$,#449,.F.);
#888=ORIENTED_EDGE($,$,$,#380,.F.);
#889=ORIENTED_EDGE($,$,$,#311,.F.);
#890=ORIENTED_EDGE($,$,$,#222,.F.);
#891=EDGE_LOOP($,(#881,#882,#883,#884,#885,#886,#887,#888,#889,#890));
#892=FACE_OUTER_BOUND('',#891,.T.);
#893=ADVANCED_FACE('',(#892),#193,.T.);
#894=ORIENTED_EDGE($,$,$,#266,.T.);
#895=ORIENTED_EDGE($,$,$,#353,.T.);
#896=ORIENTED_EDGE($,$,$,#422,.T.);
#897=ORIENTED_EDGE($,$,$,#491,.T.);
#898=ORIENTED_EDGE($,$,$,#556,.T.);
#899=ORIENTED_EDGE($,$,$,#625,.T.);
#900=ORIENTED_EDGE($,$,$,#694,.T.);
#901=ORIENTED_EDGE($,$,$,#763,.T.);
#902=ORIENTED_EDGE($,$,$,#832,.T.);
#903=ORIENTED_EDGE($,$,$,#875,.T.);
#904=EDGE_LOOP($,(#894,#895,#896,#897,#898,#899,#900,#901,#902,#903));
#905=FACE_OUTER_BOUND('',#904,.T.);
#906=ADVANCED_FACE('',(#905),#198,.T.);
#907=CLOSED_SHELL($,(#289,#358,#427,#496,#561,#630,#699,#768,#837,#880,#893,#906));
#908=MANIFOLD_SOLID_BREP('LoftFile<"lamp-shade-loft.firmament">',#907);
#909=APPLICATION_CONTEXT('mechanical design');
#910=PRODUCT_CONTEXT('',#909,'mechanical');
#911=PRODUCT('assembly-definition:280452B98FD1CFE5','LoftFile<"lamp-shade-loft.firmament">','Aetheris shared assembly definition',(#910));
#912=PRODUCT_DEFINITION_FORMATION('','',#911);
#913=PRODUCT_DEFINITION_CONTEXT('design',#909,'design');
#914=PRODUCT_DEFINITION('','',#912,#913);
#915=PRODUCT_DEFINITION_SHAPE('','',#914);
#916=(LENGTH_UNIT()NAMED_UNIT(*)SI_UNIT(.MILLI.,.METRE.));
#917=(NAMED_UNIT(*)PLANE_ANGLE_UNIT()SI_UNIT($,.RADIAN.));
#918=(NAMED_UNIT(*)SI_UNIT($,.STERADIAN.)SOLID_ANGLE_UNIT());
#919=(GEOMETRIC_REPRESENTATION_CONTEXT(3)GLOBAL_UNIT_ASSIGNED_CONTEXT((#916,#917,#918))REPRESENTATION_CONTEXT('3','3D'));
#920=SHAPE_REPRESENTATION('LoftFile<"lamp-shade-loft.firmament">',(#908),#919);
#921=SHAPE_DEFINITION_REPRESENTATION(#915,#920);
#922=CARTESIAN_POINT($,(0,0,0));
#923=DIRECTION($,(-0,-0,-1));
#924=DIRECTION($,(1,0,0));
#925=AXIS2_PLACEMENT_3D($,#922,#923,#924);
#926=PLANE($,#925);
#927=CARTESIAN_POINT($,(5.5,0,0));
#928=VERTEX_POINT($,#927);
#929=CARTESIAN_POINT($,(0,0,0));
#930=DIRECTION($,(0,0,1));
#931=DIRECTION($,(1,0,0));
#932=AXIS2_PLACEMENT_3D($,#929,#930,#931);
#933=CIRCLE($,#932,5.5);
#934=EDGE_CURVE($,#928,#928,#933,.T.);
#935=ORIENTED_EDGE($,$,$,#934,.T.);
#936=EDGE_LOOP($,(#935));
#937=FACE_OUTER_BOUND('',#936,.T.);
#938=ADVANCED_FACE('',(#937),#926,.T.);
#939=CARTESIAN_POINT($,(0,0,429));
#940=DIRECTION($,(0,0,1));
#941=DIRECTION($,(1,0,0));
#942=AXIS2_PLACEMENT_3D($,#939,#940,#941);
#943=PLANE($,#942);
#944=CARTESIAN_POINT($,(5.5,0,429));
#945=VERTEX_POINT($,#944);
#946=CARTESIAN_POINT($,(0,0,429));
#947=DIRECTION($,(0,0,1));
#948=DIRECTION($,(1,0,0));
#949=AXIS2_PLACEMENT_3D($,#946,#947,#948);
#950=CIRCLE($,#949,5.5);
#951=EDGE_CURVE($,#945,#945,#950,.T.);
#952=ORIENTED_EDGE($,$,$,#951,.T.);
#953=EDGE_LOOP($,(#952));
#954=FACE_OUTER_BOUND('',#953,.T.);
#955=ADVANCED_FACE('',(#954),#943,.T.);
#956=CARTESIAN_POINT($,(0,0,0));
#957=DIRECTION($,(0,0,1));
#958=DIRECTION($,(1,0,0));
#959=AXIS2_PLACEMENT_3D($,#956,#957,#958);
#960=CYLINDRICAL_SURFACE($,#959,5.5);
#961=ORIENTED_EDGE($,$,$,#934,.T.);
#962=CARTESIAN_POINT($,(5.5,0,0));
#963=DIRECTION($,(0,0,1));
#964=VECTOR($,#963,1);
#965=LINE($,#962,#964);
#966=EDGE_CURVE($,#928,#945,#965,.T.);
#967=ORIENTED_EDGE($,$,$,#966,.T.);
#968=ORIENTED_EDGE($,$,$,#951,.F.);
#969=ORIENTED_EDGE($,$,$,#966,.F.);
#970=EDGE_LOOP($,(#961,#967,#968,#969));
#971=FACE_OUTER_BOUND('',#970,.T.);
#972=ADVANCED_FACE('',(#971),#960,.T.);
#973=CLOSED_SHELL($,(#938,#955,#972));
#974=MANIFOLD_SOLID_BREP('Upright<PoleRadius: 5.5mm, PoleHeight: 429mm>',#973);
#975=APPLICATION_CONTEXT('mechanical design');
#976=PRODUCT_CONTEXT('',#975,'mechanical');
#977=PRODUCT('assembly-definition:6D572563B7B43165','Upright<PoleRadius: 5.5mm, PoleHeight: 429mm>','Aetheris shared assembly definition',(#976));
#978=PRODUCT_DEFINITION_FORMATION('','',#977);
#979=PRODUCT_DEFINITION_CONTEXT('design',#975,'design');
#980=PRODUCT_DEFINITION('','',#978,#979);
#981=PRODUCT_DEFINITION_SHAPE('','',#980);
#982=(LENGTH_UNIT()NAMED_UNIT(*)SI_UNIT(.MILLI.,.METRE.));
#983=(NAMED_UNIT(*)PLANE_ANGLE_UNIT()SI_UNIT($,.RADIAN.));
#984=(NAMED_UNIT(*)SI_UNIT($,.STERADIAN.)SOLID_ANGLE_UNIT());
#985=(GEOMETRIC_REPRESENTATION_CONTEXT(3)GLOBAL_UNIT_ASSIGNED_CONTEXT((#982,#983,#984))REPRESENTATION_CONTEXT('3','3D'));
#986=SHAPE_REPRESENTATION('Upright<PoleRadius: 5.5mm, PoleHeight: 429mm>',(#974),#985);
#987=SHAPE_DEFINITION_REPRESENTATION(#981,#986);
#988=CARTESIAN_POINT($,(0,0,0));
#989=DIRECTION($,(-0,-0,-1));
#990=DIRECTION($,(1,0,0));
#991=AXIS2_PLACEMENT_3D($,#988,#989,#990);
#992=PLANE($,#991);
#993=CARTESIAN_POINT($,(-144.9,0,0));
#994=VERTEX_POINT($,#993);
#995=CARTESIAN_POINT($,(-5.5,-74.4,0));
#996=VERTEX_POINT($,#995);
#997=CARTESIAN_POINT($,(-144.9,0,0));
#998=CARTESIAN_POINT($,(-144.9,-53.96,0));
#999=CARTESIAN_POINT($,(-47.32,-74.4,0));
#1000=CARTESIAN_POINT($,(-5.5,-74.4,0));
#1001=B_SPLINE_CURVE_WITH_KNOTS($,3,(#997,#998,#999,#1000),.UNSPECIFIED.,.F.,.F.,(4,4),(0,1),.PIECEWISE_BEZIER_KNOTS.);
#1002=EDGE_CURVE($,#994,#996,#1001,.T.);
#1003=ORIENTED_EDGE($,$,$,#1002,.T.);
#1004=CARTESIAN_POINT($,(-5.5000000000003,74.4,0));
#1005=VERTEX_POINT($,#1004);
#1006=CARTESIAN_POINT($,(-5.5,0,0));
#1007=DIRECTION($,(0,0,1));
#1008=DIRECTION($,(1,0,0));
#1009=AXIS2_PLACEMENT_3D($,#1006,#1007,#1008);
#1010=CIRCLE($,#1009,74.4);
#1011=TRIMMED_CURVE($,#1010,(PARAMETER_VALUE(-1.5707963267949)),(PARAMETER_VALUE(1.5707963267949)),.T.,.PARAMETER.);
#1012=EDGE_CURVE($,#996,#1005,#1011,.T.);
#1013=ORIENTED_EDGE($,$,$,#1012,.T.);
#1014=CARTESIAN_POINT($,(-5.5,74.4,0));
#1015=CARTESIAN_POINT($,(-47.32,74.4,0));
#1016=CARTESIAN_POINT($,(-144.9,53.96,0));
#1017=CARTESIAN_POINT($,(-144.9,0,0));
#1018=B_SPLINE_CURVE_WITH_KNOTS($,3,(#1014,#1015,#1016,#1017),.UNSPECIFIED.,.F.,.F.,(4,4),(0,1),.PIECEWISE_BEZIER_KNOTS.);
#1019=EDGE_CURVE($,#1005,#994,#1018,.T.);
#1020=ORIENTED_EDGE($,$,$,#1019,.T.);
#1021=EDGE_LOOP($,(#1003,#1013,#1020));
#1022=FACE_OUTER_BOUND('',#1021,.T.);
#1023=CARTESIAN_POINT($,(61.6,0,0));
#1024=VERTEX_POINT($,#1023);
#1025=CARTESIAN_POINT($,(0,0,0));
#1026=DIRECTION($,(0,0,1));
#1027=DIRECTION($,(1,0,0));
#1028=AXIS2_PLACEMENT_3D($,#1025,#1026,#1027);
#1029=CIRCLE($,#1028,61.6);
#1030=EDGE_CURVE($,#1024,#1024,#1029,.T.);
#1031=ORIENTED_EDGE($,$,$,#1030,.T.);
#1032=EDGE_LOOP($,(#1031));
#1033=FACE_BOUND('',#1032,.T.);
#1034=CARTESIAN_POINT($,(-109,0,0));
#1035=VERTEX_POINT($,#1034);
#1036=CARTESIAN_POINT($,(-116,0,0));
#1037=DIRECTION($,(0,0,1));
#1038=DIRECTION($,(1,0,0));
#1039=AXIS2_PLACEMENT_3D($,#1036,#1037,#1038);
#1040=CIRCLE($,#1039,7);
#1041=EDGE_CURVE($,#1035,#1035,#1040,.T.);
#1042=ORIENTED_EDGE($,$,$,#1041,.T.);
#1043=EDGE_LOOP($,(#1042));
#1044=FACE_BOUND('',#1043,.T.);
#1045=CARTESIAN_POINT($,(-78.5,-25,0));
#1046=VERTEX_POINT($,#1045);
#1047=CARTESIAN_POINT($,(-82,-25,0));
#1048=DIRECTION($,(0,0,1));
#1049=DIRECTION($,(1,0,0));
#1050=AXIS2_PLACEMENT_3D($,#1047,#1048,#1049);
#1051=CIRCLE($,#1050,3.5);
#1052=EDGE_CURVE($,#1046,#1046,#1051,.T.);
#1053=ORIENTED_EDGE($,$,$,#1052,.T.);
#1054=EDGE_LOOP($,(#1053));
#1055=FACE_BOUND('',#1054,.T.);
#1056=ADVANCED_FACE('',(#1022,#1033,#1044,#1055),#992,.T.);
#1057=CARTESIAN_POINT($,(0,0,12));
#1058=DIRECTION($,(0,0,1));
#1059=DIRECTION($,(1,0,0));
#1060=AXIS2_PLACEMENT_3D($,#1057,#1058,#1059);
#1061=PLANE($,#1060);
#1062=CARTESIAN_POINT($,(-144.9,0,12));
#1063=VERTEX_POINT($,#1062);
#1064=CARTESIAN_POINT($,(-5.5,-74.4,12));
#1065=VERTEX_POINT($,#1064);
#1066=CARTESIAN_POINT($,(-144.9,0,12));
#1067=CARTESIAN_POINT($,(-144.9,-53.96,12));
#1068=CARTESIAN_POINT($,(-47.32,-74.4,12));
#1069=CARTESIAN_POINT($,(-5.5,-74.4,12));
#1070=B_SPLINE_CURVE_WITH_KNOTS($,3,(#1066,#1067,#1068,#1069),.UNSPECIFIED.,.F.,.F.,(4,4),(0,1),.PIECEWISE_BEZIER_KNOTS.);
#1071=EDGE_CURVE($,#1063,#1065,#1070,.T.);
#1072=ORIENTED_EDGE($,$,$,#1071,.T.);
#1073=CARTESIAN_POINT($,(-5.5000000000003,74.4,12));
#1074=VERTEX_POINT($,#1073);
#1075=CARTESIAN_POINT($,(-5.5,0,12));
#1076=DIRECTION($,(0,0,1));
#1077=DIRECTION($,(1,0,0));
#1078=AXIS2_PLACEMENT_3D($,#1075,#1076,#1077);
#1079=CIRCLE($,#1078,74.4);
#1080=TRIMMED_CURVE($,#1079,(PARAMETER_VALUE(-1.5707963267949)),(PARAMETER_VALUE(1.5707963267949)),.T.,.PARAMETER.);
#1081=EDGE_CURVE($,#1065,#1074,#1080,.T.);
#1082=ORIENTED_EDGE($,$,$,#1081,.T.);
#1083=CARTESIAN_POINT($,(-5.5,74.4,12));
#1084=CARTESIAN_POINT($,(-47.32,74.4,12));
#1085=CARTESIAN_POINT($,(-144.9,53.96,12));
#1086=CARTESIAN_POINT($,(-144.9,0,12));
#1087=B_SPLINE_CURVE_WITH_KNOTS($,3,(#1083,#1084,#1085,#1086),.UNSPECIFIED.,.F.,.F.,(4,4),(0,1),.PIECEWISE_BEZIER_KNOTS.);
#1088=EDGE_CURVE($,#1074,#1063,#1087,.T.);
#1089=ORIENTED_EDGE($,$,$,#1088,.T.);
#1090=EDGE_LOOP($,(#1072,#1082,#1089));
#1091=FACE_OUTER_BOUND('',#1090,.T.);
#1092=CARTESIAN_POINT($,(61.6,0,12));
#1093=VERTEX_POINT($,#1092);
#1094=CARTESIAN_POINT($,(0,0,12));
#1095=DIRECTION($,(0,0,1));
#1096=DIRECTION($,(1,0,0));
#1097=AXIS2_PLACEMENT_3D($,#1094,#1095,#1096);
#1098=CIRCLE($,#1097,61.6);
#1099=EDGE_CURVE($,#1093,#1093,#1098,.T.);
#1100=ORIENTED_EDGE($,$,$,#1099,.T.);
#1101=EDGE_LOOP($,(#1100));
#1102=FACE_BOUND('',#1101,.T.);
#1103=CARTESIAN_POINT($,(-109,0,12));
#1104=VERTEX_POINT($,#1103);
#1105=CARTESIAN_POINT($,(-116,0,12));
#1106=DIRECTION($,(0,0,1));
#1107=DIRECTION($,(1,0,0));
#1108=AXIS2_PLACEMENT_3D($,#1105,#1106,#1107);
#1109=CIRCLE($,#1108,7);
#1110=EDGE_CURVE($,#1104,#1104,#1109,.T.);
#1111=ORIENTED_EDGE($,$,$,#1110,.T.);
#1112=EDGE_LOOP($,(#1111));
#1113=FACE_BOUND('',#1112,.T.);
#1114=CARTESIAN_POINT($,(-78.5,-25,12));
#1115=VERTEX_POINT($,#1114);
#1116=CARTESIAN_POINT($,(-82,-25,12));
#1117=DIRECTION($,(0,0,1));
#1118=DIRECTION($,(1,0,0));
#1119=AXIS2_PLACEMENT_3D($,#1116,#1117,#1118);
#1120=CIRCLE($,#1119,3.5);
#1121=EDGE_CURVE($,#1115,#1115,#1120,.T.);
#1122=ORIENTED_EDGE($,$,$,#1121,.T.);
#1123=EDGE_LOOP($,(#1122));
#1124=FACE_BOUND('',#1123,.T.);
#1125=ADVANCED_FACE('',(#1091,#1102,#1113,#1124),#1061,.T.);
#1126=CARTESIAN_POINT($,(-144.9,0,0));
#1127=CARTESIAN_POINT($,(-144.9,-53.96,0));
#1128=CARTESIAN_POINT($,(-47.32,-74.4,0));
#1129=CARTESIAN_POINT($,(-5.5,-74.4,0));
#1130=B_SPLINE_CURVE_WITH_KNOTS($,3,(#1126,#1127,#1128,#1129),.UNSPECIFIED.,.F.,.F.,(4,4),(0,1),.PIECEWISE_BEZIER_KNOTS.);
#1131=DIRECTION($,(0,0,1));
#1132=VECTOR($,#1131,12);
#1133=SURFACE_OF_LINEAR_EXTRUSION($,#1130,#1132);
#1134=ORIENTED_EDGE($,$,$,#1002,.T.);
#1135=CARTESIAN_POINT($,(-5.5,-74.4,0));
#1136=DIRECTION($,(0,0,1));
#1137=VECTOR($,#1136,1);
#1138=LINE($,#1135,#1137);
#1139=EDGE_CURVE($,#996,#1065,#1138,.T.);
#1140=ORIENTED_EDGE($,$,$,#1139,.T.);
#1141=ORIENTED_EDGE($,$,$,#1071,.F.);
#1142=CARTESIAN_POINT($,(-144.9,0,0));
#1143=DIRECTION($,(0,0,1));
#1144=VECTOR($,#1143,1);
#1145=LINE($,#1142,#1144);
#1146=EDGE_CURVE($,#994,#1063,#1145,.T.);
#1147=ORIENTED_EDGE($,$,$,#1146,.F.);
#1148=EDGE_LOOP($,(#1134,#1140,#1141,#1147));
#1149=FACE_OUTER_BOUND('',#1148,.T.);
#1150=ADVANCED_FACE('',(#1149),#1133,.T.);
#1151=CARTESIAN_POINT($,(-5.5,0,0));
#1152=DIRECTION($,(0,0,1));
#1153=DIRECTION($,(1,0,0));
#1154=AXIS2_PLACEMENT_3D($,#1151,#1152,#1153);
#1155=CYLINDRICAL_SURFACE($,#1154,74.4);
#1156=ORIENTED_EDGE($,$,$,#1012,.T.);
#1157=CARTESIAN_POINT($,(-5.5000000000003,74.4,0));
#1158=DIRECTION($,(0,0,1));
#1159=VECTOR($,#1158,1);
#1160=LINE($,#1157,#1159);
#1161=EDGE_CURVE($,#1005,#1074,#1160,.T.);
#1162=ORIENTED_EDGE($,$,$,#1161,.T.);
#1163=ORIENTED_EDGE($,$,$,#1081,.F.);
#1164=ORIENTED_EDGE($,$,$,#1139,.F.);
#1165=EDGE_LOOP($,(#1156,#1162,#1163,#1164));
#1166=FACE_OUTER_BOUND('',#1165,.T.);
#1167=ADVANCED_FACE('',(#1166),#1155,.T.);
#1168=CARTESIAN_POINT($,(-5.5,74.4,0));
#1169=CARTESIAN_POINT($,(-47.32,74.4,0));
#1170=CARTESIAN_POINT($,(-144.9,53.96,0));
#1171=CARTESIAN_POINT($,(-144.9,0,0));
#1172=B_SPLINE_CURVE_WITH_KNOTS($,3,(#1168,#1169,#1170,#1171),.UNSPECIFIED.,.F.,.F.,(4,4),(0,1),.PIECEWISE_BEZIER_KNOTS.);
#1173=DIRECTION($,(0,0,1));
#1174=VECTOR($,#1173,12);
#1175=SURFACE_OF_LINEAR_EXTRUSION($,#1172,#1174);
#1176=ORIENTED_EDGE($,$,$,#1019,.T.);
#1177=ORIENTED_EDGE($,$,$,#1146,.T.);
#1178=ORIENTED_EDGE($,$,$,#1088,.F.);
#1179=ORIENTED_EDGE($,$,$,#1161,.F.);
#1180=EDGE_LOOP($,(#1176,#1177,#1178,#1179));
#1181=FACE_OUTER_BOUND('',#1180,.T.);
#1182=ADVANCED_FACE('',(#1181),#1175,.T.);
#1183=CARTESIAN_POINT($,(0,0,0));
#1184=DIRECTION($,(0,0,1));
#1185=DIRECTION($,(1,0,0));
#1186=AXIS2_PLACEMENT_3D($,#1183,#1184,#1185);
#1187=CYLINDRICAL_SURFACE($,#1186,61.6);
#1188=ORIENTED_EDGE($,$,$,#1030,.T.);
#1189=CARTESIAN_POINT($,(61.6,0,0));
#1190=DIRECTION($,(0,0,1));
#1191=VECTOR($,#1190,1);
#1192=LINE($,#1189,#1191);
#1193=EDGE_CURVE($,#1024,#1093,#1192,.T.);
#1194=ORIENTED_EDGE($,$,$,#1193,.T.);
#1195=ORIENTED_EDGE($,$,$,#1099,.F.);
#1196=ORIENTED_EDGE($,$,$,#1193,.F.);
#1197=EDGE_LOOP($,(#1188,#1194,#1195,#1196));
#1198=FACE_OUTER_BOUND('',#1197,.T.);
#1199=ADVANCED_FACE('',(#1198),#1187,.F.);
#1200=CARTESIAN_POINT($,(-116,0,0));
#1201=DIRECTION($,(0,0,1));
#1202=DIRECTION($,(1,0,0));
#1203=AXIS2_PLACEMENT_3D($,#1200,#1201,#1202);
#1204=CYLINDRICAL_SURFACE($,#1203,7);
#1205=ORIENTED_EDGE($,$,$,#1041,.T.);
#1206=CARTESIAN_POINT($,(-109,0,0));
#1207=DIRECTION($,(0,0,1));
#1208=VECTOR($,#1207,1);
#1209=LINE($,#1206,#1208);
#1210=EDGE_CURVE($,#1035,#1104,#1209,.T.);
#1211=ORIENTED_EDGE($,$,$,#1210,.T.);
#1212=ORIENTED_EDGE($,$,$,#1110,.F.);
#1213=ORIENTED_EDGE($,$,$,#1210,.F.);
#1214=EDGE_LOOP($,(#1205,#1211,#1212,#1213));
#1215=FACE_OUTER_BOUND('',#1214,.T.);
#1216=ADVANCED_FACE('',(#1215),#1204,.F.);
#1217=CARTESIAN_POINT($,(-82,-25,0));
#1218=DIRECTION($,(0,0,1));
#1219=DIRECTION($,(1,0,0));
#1220=AXIS2_PLACEMENT_3D($,#1217,#1218,#1219);
#1221=CYLINDRICAL_SURFACE($,#1220,3.5);
#1222=ORIENTED_EDGE($,$,$,#1052,.T.);
#1223=CARTESIAN_POINT($,(-78.5,-25,0));
#1224=DIRECTION($,(0,0,1));
#1225=VECTOR($,#1224,1);
#1226=LINE($,#1223,#1225);
#1227=EDGE_CURVE($,#1046,#1115,#1226,.T.);
#1228=ORIENTED_EDGE($,$,$,#1227,.T.);
#1229=ORIENTED_EDGE($,$,$,#1121,.F.);
#1230=ORIENTED_EDGE($,$,$,#1227,.F.);
#1231=EDGE_LOOP($,(#1222,#1228,#1229,#1230));
#1232=FACE_OUTER_BOUND('',#1231,.T.);
#1233=ADVANCED_FACE('',(#1232),#1221,.F.);
#1234=CLOSED_SHELL($,(#1056,#1125,#1150,#1167,#1182,#1199,#1216,#1233));
#1235=MANIFOLD_SOLID_BREP('LampBase<OpeningRadius: 61.6mm>',#1234);
#1236=APPLICATION_CONTEXT('mechanical design');
#1237=PRODUCT_CONTEXT('',#1236,'mechanical');
#1238=PRODUCT('assembly-definition:BF82F9DE90D70965','LampBase<OpeningRadius: 61.6mm>','Aetheris shared assembly definition',(#1237));
#1239=PRODUCT_DEFINITION_FORMATION('','',#1238);
#1240=PRODUCT_DEFINITION_CONTEXT('design',#1236,'design');
#1241=PRODUCT_DEFINITION('','',#1239,#1240);
#1242=PRODUCT_DEFINITION_SHAPE('','',#1241);
#1243=(LENGTH_UNIT()NAMED_UNIT(*)SI_UNIT(.MILLI.,.METRE.));
#1244=(NAMED_UNIT(*)PLANE_ANGLE_UNIT()SI_UNIT($,.RADIAN.));
#1245=(NAMED_UNIT(*)SI_UNIT($,.STERADIAN.)SOLID_ANGLE_UNIT());
#1246=(GEOMETRIC_REPRESENTATION_CONTEXT(3)GLOBAL_UNIT_ASSIGNED_CONTEXT((#1243,#1244,#1245))REPRESENTATION_CONTEXT('3','3D'));
#1247=SHAPE_REPRESENTATION('LampBase<OpeningRadius: 61.6mm>',(#1235),#1246);
#1248=SHAPE_DEFINITION_REPRESENTATION(#1242,#1247);
#1249=CARTESIAN_POINT($,(0,0,0));
#1250=DIRECTION($,(-0,-0,-1));
#1251=DIRECTION($,(1,0,0));
#1252=AXIS2_PLACEMENT_3D($,#1249,#1250,#1251);
#1253=PLANE($,#1252);
#1254=CARTESIAN_POINT($,(10,0,0));
#1255=VERTEX_POINT($,#1254);
#1256=CARTESIAN_POINT($,(0,0,0));
#1257=DIRECTION($,(0,0,1));
#1258=DIRECTION($,(1,0,0));
#1259=AXIS2_PLACEMENT_3D($,#1256,#1257,#1258);
#1260=CIRCLE($,#1259,10);
#1261=EDGE_CURVE($,#1255,#1255,#1260,.T.);
#1262=ORIENTED_EDGE($,$,$,#1261,.T.);
#1263=EDGE_LOOP($,(#1262));
#1264=FACE_OUTER_BOUND('',#1263,.T.);
#1265=ADVANCED_FACE('',(#1264),#1253,.T.);
#1266=CARTESIAN_POINT($,(0,0,20));
#1267=DIRECTION($,(0,0,1));
#1268=DIRECTION($,(1,0,0));
#1269=AXIS2_PLACEMENT_3D($,#1266,#1267,#1268);
#1270=PLANE($,#1269);
#1271=CARTESIAN_POINT($,(10,0,20));
#1272=VERTEX_POINT($,#1271);
#1273=CARTESIAN_POINT($,(0,0,20));
#1274=DIRECTION($,(0,0,1));
#1275=DIRECTION($,(1,0,0));
#1276=AXIS2_PLACEMENT_3D($,#1273,#1274,#1275);
#1277=CIRCLE($,#1276,10);
#1278=EDGE_CURVE($,#1272,#1272,#1277,.T.);
#1279=ORIENTED_EDGE($,$,$,#1278,.T.);
#1280=EDGE_LOOP($,(#1279));
#1281=FACE_OUTER_BOUND('',#1280,.T.);
#1282=ADVANCED_FACE('',(#1281),#1270,.T.);
#1283=CARTESIAN_POINT($,(0,0,0));
#1284=DIRECTION($,(0,0,1));
#1285=DIRECTION($,(1,0,0));
#1286=AXIS2_PLACEMENT_3D($,#1283,#1284,#1285);
#1287=CYLINDRICAL_SURFACE($,#1286,10);
#1288=ORIENTED_EDGE($,$,$,#1261,.T.);
#1289=CARTESIAN_POINT($,(10,0,0));
#1290=DIRECTION($,(0,0,1));
#1291=VECTOR($,#1290,1);
#1292=LINE($,#1289,#1291);
#1293=EDGE_CURVE($,#1255,#1272,#1292,.T.);
#1294=ORIENTED_EDGE($,$,$,#1293,.T.);
#1295=ORIENTED_EDGE($,$,$,#1278,.F.);
#1296=ORIENTED_EDGE($,$,$,#1293,.F.);
#1297=EDGE_LOOP($,(#1288,#1294,#1295,#1296));
#1298=FACE_OUTER_BOUND('',#1297,.T.);
#1299=ADVANCED_FACE('',(#1298),#1287,.T.);
#1300=CLOSED_SHELL($,(#1265,#1282,#1299));
#1301=MANIFOLD_SOLID_BREP('PivotPin<PivotRadius: 10mm, PivotLength: 20mm>',#1300);
#1302=APPLICATION_CONTEXT('mechanical design');
#1303=PRODUCT_CONTEXT('',#1302,'mechanical');
#1304=PRODUCT('assembly-definition:C7275338304DA333','PivotPin<PivotRadius: 10mm, PivotLength: 20mm>','Aetheris shared assembly definition',(#1303));
#1305=PRODUCT_DEFINITION_FORMATION('','',#1304);
#1306=PRODUCT_DEFINITION_CONTEXT('design',#1302,'design');
#1307=PRODUCT_DEFINITION('','',#1305,#1306);
#1308=PRODUCT_DEFINITION_SHAPE('','',#1307);
#1309=(LENGTH_UNIT()NAMED_UNIT(*)SI_UNIT(.MILLI.,.METRE.));
#1310=(NAMED_UNIT(*)PLANE_ANGLE_UNIT()SI_UNIT($,.RADIAN.));
#1311=(NAMED_UNIT(*)SI_UNIT($,.STERADIAN.)SOLID_ANGLE_UNIT());
#1312=(GEOMETRIC_REPRESENTATION_CONTEXT(3)GLOBAL_UNIT_ASSIGNED_CONTEXT((#1309,#1310,#1311))REPRESENTATION_CONTEXT('3','3D'));
#1313=SHAPE_REPRESENTATION('PivotPin<PivotRadius: 10mm, PivotLength: 20mm>',(#1301),#1312);
#1314=SHAPE_DEFINITION_REPRESENTATION(#1308,#1313);
#1315=CARTESIAN_POINT($,(0,0,0));
#1316=DIRECTION($,(-0,-0,-1));
#1317=DIRECTION($,(1,0,0));
#1318=AXIS2_PLACEMENT_3D($,#1315,#1316,#1317);
#1319=PLANE($,#1318);
#1320=CARTESIAN_POINT($,(27,0,0));
#1321=VERTEX_POINT($,#1320);
#1322=CARTESIAN_POINT($,(0,0,0));
#1323=DIRECTION($,(0,0,1));
#1324=DIRECTION($,(1,0,0));
#1325=AXIS2_PLACEMENT_3D($,#1322,#1323,#1324);
#1326=CIRCLE($,#1325,27);
#1327=EDGE_CURVE($,#1321,#1321,#1326,.T.);
#1328=ORIENTED_EDGE($,$,$,#1327,.T.);
#1329=EDGE_LOOP($,(#1328));
#1330=FACE_OUTER_BOUND('',#1329,.T.);
#1331=CARTESIAN_POINT($,(26,0,0));
#1332=VERTEX_POINT($,#1331);
#1333=CARTESIAN_POINT($,(0,0,0));
#1334=DIRECTION($,(0,0,1));
#1335=DIRECTION($,(1,0,0));
#1336=AXIS2_PLACEMENT_3D($,#1333,#1334,#1335);
#1337=CIRCLE($,#1336,26);
#1338=EDGE_CURVE($,#1332,#1332,#1337,.T.);
#1339=ORIENTED_EDGE($,$,$,#1338,.T.);
#1340=EDGE_LOOP($,(#1339));
#1341=FACE_BOUND('',#1340,.T.);
#1342=ADVANCED_FACE('',(#1330,#1341),#1319,.T.);
#1343=CARTESIAN_POINT($,(0,0,143.5));
#1344=DIRECTION($,(0,0,1));
#1345=DIRECTION($,(1,0,0));
#1346=AXIS2_PLACEMENT_3D($,#1343,#1344,#1345);
#1347=PLANE($,#1346);
#1348=CARTESIAN_POINT($,(27,0,143.5));
#1349=VERTEX_POINT($,#1348);
#1350=CARTESIAN_POINT($,(0,0,143.5));
#1351=DIRECTION($,(0,0,1));
#1352=DIRECTION($,(1,0,0));
#1353=AXIS2_PLACEMENT_3D($,#1350,#1351,#1352);
#1354=CIRCLE($,#1353,27);
#1355=EDGE_CURVE($,#1349,#1349,#1354,.T.);
#1356=ORIENTED_EDGE($,$,$,#1355,.T.);
#1357=EDGE_LOOP($,(#1356));
#1358=FACE_OUTER_BOUND('',#1357,.T.);
#1359=CARTESIAN_POINT($,(26,0,143.5));
#1360=VERTEX_POINT($,#1359);
#1361=CARTESIAN_POINT($,(0,0,143.5));
#1362=DIRECTION($,(0,0,1));
#1363=DIRECTION($,(1,0,0));
#1364=AXIS2_PLACEMENT_3D($,#1361,#1362,#1363);
#1365=CIRCLE($,#1364,26);
#1366=EDGE_CURVE($,#1360,#1360,#1365,.T.);
#1367=ORIENTED_EDGE($,$,$,#1366,.T.);
#1368=EDGE_LOOP($,(#1367));
#1369=FACE_BOUND('',#1368,.T.);
#1370=ADVANCED_FACE('',(#1358,#1369),#1347,.T.);
#1371=CARTESIAN_POINT($,(0,0,0));
#1372=DIRECTION($,(0,0,1));
#1373=DIRECTION($,(1,0,0));
#1374=AXIS2_PLACEMENT_3D($,#1371,#1372,#1373);
#1375=CYLINDRICAL_SURFACE($,#1374,27);
#1376=ORIENTED_EDGE($,$,$,#1327,.T.);
#1377=CARTESIAN_POINT($,(27,0,0));
#1378=DIRECTION($,(0,0,1));
#1379=VECTOR($,#1378,1);
#1380=LINE($,#1377,#1379);
#1381=EDGE_CURVE($,#1321,#1349,#1380,.T.);
#1382=ORIENTED_EDGE($,$,$,#1381,.T.);
#1383=ORIENTED_EDGE($,$,$,#1355,.F.);
#1384=ORIENTED_EDGE($,$,$,#1381,.F.);
#1385=EDGE_LOOP($,(#1376,#1382,#1383,#1384));
#1386=FACE_OUTER_BOUND('',#1385,.T.);
#1387=ADVANCED_FACE('',(#1386),#1375,.T.);
#1388=CARTESIAN_POINT($,(0,0,0));
#1389=DIRECTION($,(0,0,1));
#1390=DIRECTION($,(1,0,0));
#1391=AXIS2_PLACEMENT_3D($,#1388,#1389,#1390);
#1392=CYLINDRICAL_SURFACE($,#1391,26);
#1393=ORIENTED_EDGE($,$,$,#1338,.T.);
#1394=CARTESIAN_POINT($,(26,0,0));
#1395=DIRECTION($,(0,0,1));
#1396=VECTOR($,#1395,1);
#1397=LINE($,#1394,#1396);
#1398=EDGE_CURVE($,#1332,#1360,#1397,.T.);
#1399=ORIENTED_EDGE($,$,$,#1398,.T.);
#1400=ORIENTED_EDGE($,$,$,#1366,.F.);
#1401=ORIENTED_EDGE($,$,$,#1398,.F.);
#1402=EDGE_LOOP($,(#1393,#1399,#1400,#1401));
#1403=FACE_OUTER_BOUND('',#1402,.T.);
#1404=ADVANCED_FACE('',(#1403),#1392,.F.);
#1405=CLOSED_SHELL($,(#1342,#1370,#1387,#1404));
#1406=MANIFOLD_SOLID_BREP('HeadTube<OutsideRadius: 27mm, InsideRadius: 26mm, TubeLength: 143.5mm>',#1405);
#1407=APPLICATION_CONTEXT('mechanical design');
#1408=PRODUCT_CONTEXT('',#1407,'mechanical');
#1409=PRODUCT('assembly-definition:CC4F9775EEEFA67A','HeadTube<OutsideRadius: 27mm, InsideRadius: 26mm, TubeLength: 143.5mm>','Aetheris shared assembly definition',(#1408));
#1410=PRODUCT_DEFINITION_FORMATION('','',#1409);
#1411=PRODUCT_DEFINITION_CONTEXT('design',#1407,'design');
#1412=PRODUCT_DEFINITION('','',#1410,#1411);
#1413=PRODUCT_DEFINITION_SHAPE('','',#1412);
#1414=(LENGTH_UNIT()NAMED_UNIT(*)SI_UNIT(.MILLI.,.METRE.));
#1415=(NAMED_UNIT(*)PLANE_ANGLE_UNIT()SI_UNIT($,.RADIAN.));
#1416=(NAMED_UNIT(*)SI_UNIT($,.STERADIAN.)SOLID_ANGLE_UNIT());
#1417=(GEOMETRIC_REPRESENTATION_CONTEXT(3)GLOBAL_UNIT_ASSIGNED_CONTEXT((#1414,#1415,#1416))REPRESENTATION_CONTEXT('3','3D'));
#1418=SHAPE_REPRESENTATION('HeadTube<OutsideRadius: 27mm, InsideRadius: 26mm, TubeLength: 143.5mm>',(#1406),#1417);
#1419=SHAPE_DEFINITION_REPRESENTATION(#1413,#1418);
#1420=CARTESIAN_POINT($,(0,0,0));
#1421=DIRECTION($,(-0,-0,-1));
#1422=DIRECTION($,(1,0,0));
#1423=AXIS2_PLACEMENT_3D($,#1420,#1421,#1422);
#1424=PLANE($,#1423);
#1425=CARTESIAN_POINT($,(9.9997066623644,-0.0000000000002,0));
#1426=VERTEX_POINT($,#1425);
#1427=CARTESIAN_POINT($,(4.9998533311819,8.66,-0));
#1428=VERTEX_POINT($,#1427);
#1429=CARTESIAN_POINT($,(9.9997066623644,-0.0000000000002,0));
#1430=DIRECTION($,(-0.5,0.8660254037844,0));
#1431=VECTOR($,#1430,1);
#1432=LINE($,#1429,#1431);
#1433=EDGE_CURVE($,#1426,#1428,#1432,.T.);
#1434=ORIENTED_EDGE($,$,$,#1433,.T.);
#1435=CARTESIAN_POINT($,(-4.9998533311822,8.66,-0));
#1436=VERTEX_POINT($,#1435);
#1437=CARTESIAN_POINT($,(4.9998533311819,8.66,-0));
#1438=DIRECTION($,(-1,0,0));
#1439=VECTOR($,#1438,1);
#1440=LINE($,#1437,#1439);
#1441=EDGE_CURVE($,#1428,#1436,#1440,.T.);
#1442=ORIENTED_EDGE($,$,$,#1441,.T.);
#1443=CARTESIAN_POINT($,(-9.9997066623644,0.0000000000002,-0));
#1444=VERTEX_POINT($,#1443);
#1445=CARTESIAN_POINT($,(-4.9998533311822,8.66,-0));
#1446=DIRECTION($,(-0.5,-0.8660254037844,0));
#1447=VECTOR($,#1446,1);
#1448=LINE($,#1445,#1447);
#1449=EDGE_CURVE($,#1436,#1444,#1448,.T.);
#1450=ORIENTED_EDGE($,$,$,#1449,.T.);
#1451=CARTESIAN_POINT($,(-4.9998533311819,-8.66,-0));
#1452=VERTEX_POINT($,#1451);
#1453=CARTESIAN_POINT($,(-9.9997066623644,0.0000000000002,-0));
#1454=DIRECTION($,(0.5,-0.8660254037844,0));
#1455=VECTOR($,#1454,1);
#1456=LINE($,#1453,#1455);
#1457=EDGE_CURVE($,#1444,#1452,#1456,.T.);
#1458=ORIENTED_EDGE($,$,$,#1457,.T.);
#1459=CARTESIAN_POINT($,(4.9998533311822,-8.66,-0));
#1460=VERTEX_POINT($,#1459);
#1461=CARTESIAN_POINT($,(-4.9998533311819,-8.66,-0));
#1462=DIRECTION($,(1,0,0));
#1463=VECTOR($,#1462,1);
#1464=LINE($,#1461,#1463);
#1465=EDGE_CURVE($,#1452,#1460,#1464,.T.);
#1466=ORIENTED_EDGE($,$,$,#1465,.T.);
#1467=CARTESIAN_POINT($,(4.9998533311822,-8.66,-0));
#1468=DIRECTION($,(0.5,0.8660254037844,0));
#1469=VECTOR($,#1468,1);
#1470=LINE($,#1467,#1469);
#1471=EDGE_CURVE($,#1460,#1426,#1470,.T.);
#1472=ORIENTED_EDGE($,$,$,#1471,.T.);
#1473=EDGE_LOOP($,(#1434,#1442,#1450,#1458,#1466,#1472));
#1474=FACE_OUTER_BOUND('',#1473,.T.);
#1475=CARTESIAN_POINT($,(5.5,0,0));
#1476=VERTEX_POINT($,#1475);
#1477=CARTESIAN_POINT($,(0,0,0));
#1478=DIRECTION($,(0,0,1));
#1479=DIRECTION($,(1,0,0));
#1480=AXIS2_PLACEMENT_3D($,#1477,#1478,#1479);
#1481=CIRCLE($,#1480,5.5);
#1482=EDGE_CURVE($,#1476,#1476,#1481,.T.);
#1483=ORIENTED_EDGE($,$,$,#1482,.T.);
#1484=EDGE_LOOP($,(#1483));
#1485=FACE_BOUND('',#1484,.T.);
#1486=ADVANCED_FACE('',(#1474,#1485),#1424,.T.);
#1487=CARTESIAN_POINT($,(0,0,3));
#1488=DIRECTION($,(0,0,1));
#1489=DIRECTION($,(1,0,0));
#1490=AXIS2_PLACEMENT_3D($,#1487,#1488,#1489);
#1491=PLANE($,#1490);
#1492=CARTESIAN_POINT($,(9.9997066623644,-0.0000000000002,3));
#1493=VERTEX_POINT($,#1492);
#1494=CARTESIAN_POINT($,(4.9998533311819,8.66,3));
#1495=VERTEX_POINT($,#1494);
#1496=CARTESIAN_POINT($,(9.9997066623644,-0.0000000000002,3));
#1497=DIRECTION($,(-0.5,0.8660254037844,0));
#1498=VECTOR($,#1497,1);
#1499=LINE($,#1496,#1498);
#1500=EDGE_CURVE($,#1493,#1495,#1499,.T.);
#1501=ORIENTED_EDGE($,$,$,#1500,.T.);
#1502=CARTESIAN_POINT($,(-4.9998533311822,8.66,3));
#1503=VERTEX_POINT($,#1502);
#1504=CARTESIAN_POINT($,(4.9998533311819,8.66,3));
#1505=DIRECTION($,(-1,0,0));
#1506=VECTOR($,#1505,1);
#1507=LINE($,#1504,#1506);
#1508=EDGE_CURVE($,#1495,#1503,#1507,.T.);
#1509=ORIENTED_EDGE($,$,$,#1508,.T.);
#1510=CARTESIAN_POINT($,(-9.9997066623644,0.0000000000002,3));
#1511=VERTEX_POINT($,#1510);
#1512=CARTESIAN_POINT($,(-4.9998533311822,8.66,3));
#1513=DIRECTION($,(-0.5,-0.8660254037844,0));
#1514=VECTOR($,#1513,1);
#1515=LINE($,#1512,#1514);
#1516=EDGE_CURVE($,#1503,#1511,#1515,.T.);
#1517=ORIENTED_EDGE($,$,$,#1516,.T.);
#1518=CARTESIAN_POINT($,(-4.9998533311819,-8.66,3));
#1519=VERTEX_POINT($,#1518);
#1520=CARTESIAN_POINT($,(-9.9997066623644,0.0000000000002,3));
#1521=DIRECTION($,(0.5,-0.8660254037844,0));
#1522=VECTOR($,#1521,1);
#1523=LINE($,#1520,#1522);
#1524=EDGE_CURVE($,#1511,#1519,#1523,.T.);
#1525=ORIENTED_EDGE($,$,$,#1524,.T.);
#1526=CARTESIAN_POINT($,(4.9998533311822,-8.66,3));
#1527=VERTEX_POINT($,#1526);
#1528=CARTESIAN_POINT($,(-4.9998533311819,-8.66,3));
#1529=DIRECTION($,(1,0,0));
#1530=VECTOR($,#1529,1);
#1531=LINE($,#1528,#1530);
#1532=EDGE_CURVE($,#1519,#1527,#1531,.T.);
#1533=ORIENTED_EDGE($,$,$,#1532,.T.);
#1534=CARTESIAN_POINT($,(4.9998533311822,-8.66,3));
#1535=DIRECTION($,(0.5,0.8660254037844,0));
#1536=VECTOR($,#1535,1);
#1537=LINE($,#1534,#1536);
#1538=EDGE_CURVE($,#1527,#1493,#1537,.T.);
#1539=ORIENTED_EDGE($,$,$,#1538,.T.);
#1540=EDGE_LOOP($,(#1501,#1509,#1517,#1525,#1533,#1539));
#1541=FACE_OUTER_BOUND('',#1540,.T.);
#1542=CARTESIAN_POINT($,(5.5,0,3));
#1543=VERTEX_POINT($,#1542);
#1544=CARTESIAN_POINT($,(0,0,3));
#1545=DIRECTION($,(0,0,1));
#1546=DIRECTION($,(1,0,0));
#1547=AXIS2_PLACEMENT_3D($,#1544,#1545,#1546);
#1548=CIRCLE($,#1547,5.5);
#1549=EDGE_CURVE($,#1543,#1543,#1548,.T.);
#1550=ORIENTED_EDGE($,$,$,#1549,.T.);
#1551=EDGE_LOOP($,(#1550));
#1552=FACE_BOUND('',#1551,.T.);
#1553=ADVANCED_FACE('',(#1541,#1552),#1491,.T.);
#1554=CARTESIAN_POINT($,(9.9997066623643,0,0));
#1555=DIRECTION($,(0.8660254037844,0.5,0));
#1556=DIRECTION($,(0,0,1));
#1557=AXIS2_PLACEMENT_3D($,#1554,#1555,#1556);
#1558=PLANE($,#1557);
#1559=ORIENTED_EDGE($,$,$,#1433,.T.);
#1560=CARTESIAN_POINT($,(4.9998533311819,8.66,-0));
#1561=DIRECTION($,(0,0,1));
#1562=VECTOR($,#1561,1);
#1563=LINE($,#1560,#1562);
#1564=EDGE_CURVE($,#1428,#1495,#1563,.T.);
#1565=ORIENTED_EDGE($,$,$,#1564,.T.);
#1566=ORIENTED_EDGE($,$,$,#1500,.F.);
#1567=CARTESIAN_POINT($,(9.9997066623644,-0.0000000000002,0));
#1568=DIRECTION($,(0,0,1));
#1569=VECTOR($,#1568,1);
#1570=LINE($,#1567,#1569);
#1571=EDGE_CURVE($,#1426,#1493,#1570,.T.);
#1572=ORIENTED_EDGE($,$,$,#1571,.F.);
#1573=EDGE_LOOP($,(#1559,#1565,#1566,#1572));
#1574=FACE_OUTER_BOUND('',#1573,.T.);
#1575=ADVANCED_FACE('',(#1574),#1558,.T.);
#1576=CARTESIAN_POINT($,(4.9998533311822,8.66,0));
#1577=DIRECTION($,(0,1,0));
#1578=DIRECTION($,(0,0,1));
#1579=AXIS2_PLACEMENT_3D($,#1576,#1577,#1578);
#1580=PLANE($,#1579);
#1581=ORIENTED_EDGE($,$,$,#1441,.T.);
#1582=CARTESIAN_POINT($,(-4.9998533311822,8.66,-0));
#1583=DIRECTION($,(0,0,1));
#1584=VECTOR($,#1583,1);
#1585=LINE($,#1582,#1584);
#1586=EDGE_CURVE($,#1436,#1503,#1585,.T.);
#1587=ORIENTED_EDGE($,$,$,#1586,.T.);
#1588=ORIENTED_EDGE($,$,$,#1508,.F.);
#1589=ORIENTED_EDGE($,$,$,#1564,.F.);
#1590=EDGE_LOOP($,(#1581,#1587,#1588,#1589));
#1591=FACE_OUTER_BOUND('',#1590,.T.);
#1592=ADVANCED_FACE('',(#1591),#1580,.T.);
#1593=CARTESIAN_POINT($,(-4.9998533311822,8.66,0));
#1594=DIRECTION($,(-0.8660254037844,0.5,0));
#1595=DIRECTION($,(0,0,1));
#1596=AXIS2_PLACEMENT_3D($,#1593,#1594,#1595);
#1597=PLANE($,#1596);
#1598=ORIENTED_EDGE($,$,$,#1449,.T.);
#1599=CARTESIAN_POINT($,(-9.9997066623644,0.0000000000002,-0));
#1600=DIRECTION($,(0,0,1));
#1601=VECTOR($,#1600,1);
#1602=LINE($,#1599,#1601);
#1603=EDGE_CURVE($,#1444,#1511,#1602,.T.);
#1604=ORIENTED_EDGE($,$,$,#1603,.T.);
#1605=ORIENTED_EDGE($,$,$,#1516,.F.);
#1606=ORIENTED_EDGE($,$,$,#1586,.F.);
#1607=EDGE_LOOP($,(#1598,#1604,#1605,#1606));
#1608=FACE_OUTER_BOUND('',#1607,.T.);
#1609=ADVANCED_FACE('',(#1608),#1597,.T.);
#1610=CARTESIAN_POINT($,(-9.9997066623643,0,0));
#1611=DIRECTION($,(-0.8660254037844,-0.5,0));
#1612=DIRECTION($,(0,0,1));
#1613=AXIS2_PLACEMENT_3D($,#1610,#1611,#1612);
#1614=PLANE($,#1613);
#1615=ORIENTED_EDGE($,$,$,#1457,.T.);
#1616=CARTESIAN_POINT($,(-4.9998533311819,-8.66,-0));
#1617=DIRECTION($,(0,0,1));
#1618=VECTOR($,#1617,1);
#1619=LINE($,#1616,#1618);
#1620=EDGE_CURVE($,#1452,#1519,#1619,.T.);
#1621=ORIENTED_EDGE($,$,$,#1620,.T.);
#1622=ORIENTED_EDGE($,$,$,#1524,.F.);
#1623=ORIENTED_EDGE($,$,$,#1603,.F.);
#1624=EDGE_LOOP($,(#1615,#1621,#1622,#1623));
#1625=FACE_OUTER_BOUND('',#1624,.T.);
#1626=ADVANCED_FACE('',(#1625),#1614,.T.);
#1627=CARTESIAN_POINT($,(-4.9998533311822,-8.66,0));
#1628=DIRECTION($,(0,-1,0));
#1629=DIRECTION($,(0,0,1));
#1630=AXIS2_PLACEMENT_3D($,#1627,#1628,#1629);
#1631=PLANE($,#1630);
#1632=ORIENTED_EDGE($,$,$,#1465,.T.);
#1633=CARTESIAN_POINT($,(4.9998533311822,-8.66,-0));
#1634=DIRECTION($,(0,0,1));
#1635=VECTOR($,#1634,1);
#1636=LINE($,#1633,#1635);
#1637=EDGE_CURVE($,#1460,#1527,#1636,.T.);
#1638=ORIENTED_EDGE($,$,$,#1637,.T.);
#1639=ORIENTED_EDGE($,$,$,#1532,.F.);
#1640=ORIENTED_EDGE($,$,$,#1620,.F.);
#1641=EDGE_LOOP($,(#1632,#1638,#1639,#1640));
#1642=FACE_OUTER_BOUND('',#1641,.T.);
#1643=ADVANCED_FACE('',(#1642),#1631,.T.);
#1644=CARTESIAN_POINT($,(4.9998533311822,-8.66,0));
#1645=DIRECTION($,(0.8660254037844,-0.5,0));
#1646=DIRECTION($,(0,0,1));
#1647=AXIS2_PLACEMENT_3D($,#1644,#1645,#1646);
#1648=PLANE($,#1647);
#1649=ORIENTED_EDGE($,$,$,#1471,.T.);
#1650=ORIENTED_EDGE($,$,$,#1571,.T.);
#1651=ORIENTED_EDGE($,$,$,#1538,.F.);
#1652=ORIENTED_EDGE($,$,$,#1637,.F.);
#1653=EDGE_LOOP($,(#1649,#1650,#1651,#1652));
#1654=FACE_OUTER_BOUND('',#1653,.T.);
#1655=ADVANCED_FACE('',(#1654),#1648,.T.);
#1656=CARTESIAN_POINT($,(0,0,0));
#1657=DIRECTION($,(0,0,1));
#1658=DIRECTION($,(1,0,0));
#1659=AXIS2_PLACEMENT_3D($,#1656,#1657,#1658);
#1660=CYLINDRICAL_SURFACE($,#1659,5.5);
#1661=ORIENTED_EDGE($,$,$,#1482,.T.);
#1662=CARTESIAN_POINT($,(5.5,0,0));
#1663=DIRECTION($,(0,0,1));
#1664=VECTOR($,#1663,1);
#1665=LINE($,#1662,#1664);
#1666=EDGE_CURVE($,#1476,#1543,#1665,.T.);
#1667=ORIENTED_EDGE($,$,$,#1666,.T.);
#1668=ORIENTED_EDGE($,$,$,#1549,.F.);
#1669=ORIENTED_EDGE($,$,$,#1666,.F.);
#1670=EDGE_LOOP($,(#1661,#1667,#1668,#1669));
#1671=FACE_OUTER_BOUND('',#1670,.T.);
#1672=ADVANCED_FACE('',(#1671),#1660,.F.);
#1673=CLOSED_SHELL($,(#1486,#1553,#1575,#1592,#1609,#1626,#1643,#1655,#1672));
#1674=MANIFOLD_SOLID_BREP('HexNut<WidthAcrossFlats: 17.32mm, BoreRadius: 5.5mm, NutHeight: 3mm>',#1673);
#1675=APPLICATION_CONTEXT('mechanical design');
#1676=PRODUCT_CONTEXT('',#1675,'mechanical');
#1677=PRODUCT('assembly-definition:E7E925C6BBBF1481','HexNut<WidthAcrossFlats: 17.32mm, BoreRadius: 5.5mm, NutHeight: 3mm>','Aetheris shared assembly definition',(#1676));
#1678=PRODUCT_DEFINITION_FORMATION('','',#1677);
#1679=PRODUCT_DEFINITION_CONTEXT('design',#1675,'design');
#1680=PRODUCT_DEFINITION('','',#1678,#1679);
#1681=PRODUCT_DEFINITION_SHAPE('','',#1680);
#1682=(LENGTH_UNIT()NAMED_UNIT(*)SI_UNIT(.MILLI.,.METRE.));
#1683=(NAMED_UNIT(*)PLANE_ANGLE_UNIT()SI_UNIT($,.RADIAN.));
#1684=(NAMED_UNIT(*)SI_UNIT($,.STERADIAN.)SOLID_ANGLE_UNIT());
#1685=(GEOMETRIC_REPRESENTATION_CONTEXT(3)GLOBAL_UNIT_ASSIGNED_CONTEXT((#1682,#1683,#1684))REPRESENTATION_CONTEXT('3','3D'));
#1686=SHAPE_REPRESENTATION('HexNut<WidthAcrossFlats: 17.32mm, BoreRadius: 5.5mm, NutHeight: 3mm>',(#1674),#1685);
#1687=SHAPE_DEFINITION_REPRESENTATION(#1681,#1686);
#1688=APPLICATION_CONTEXT('mechanical design');
#1689=PRODUCT_CONTEXT('',#1688,'mechanical');
#1690=PRODUCT_DEFINITION_CONTEXT('design',#1688,'design');
#1691=(LENGTH_UNIT()NAMED_UNIT(*)SI_UNIT(.MILLI.,.METRE.));
#1692=(NAMED_UNIT(*)PLANE_ANGLE_UNIT()SI_UNIT($,.RADIAN.));
#1693=(NAMED_UNIT(*)SI_UNIT($,.STERADIAN.)SOLID_ANGLE_UNIT());
#1694=(GEOMETRIC_REPRESENTATION_CONTEXT(3)GLOBAL_UNIT_ASSIGNED_CONTEXT((#1691,#1692,#1693))REPRESENTATION_CONTEXT('3','3D'));
#1695=PRODUCT('assembly-instance:CartesianLamp','CartesianLamp','Aetheris assembly product',(#1689));
#1696=PRODUCT_DEFINITION_FORMATION('','',#1695);
#1697=PRODUCT_DEFINITION('assembly-instance:CartesianLamp','',#1696,#1690);
#1698=PRODUCT_DEFINITION_SHAPE('','',#1697);
#1699=SHAPE_REPRESENTATION('CartesianLamp',(),#1694);
#1700=SHAPE_DEFINITION_REPRESENTATION(#1698,#1699);
#1701=CARTESIAN_POINT('',(0.,0.,0.));
#1702=AXIS2_PLACEMENT_3D('',#1701,$,$);
#1703=NEXT_ASSEMBLY_USAGE_OCCURRENCE('assembly-instance:CartesianLamp.Base','Base','',#1697,#1241,$);
#1704=PRODUCT_DEFINITION_SHAPE('','',#1703);
#1705=CARTESIAN_POINT('',(38,0,0));
#1706=DIRECTION('',(0,0,1));
#1707=DIRECTION('',(1,0,0));
#1708=AXIS2_PLACEMENT_3D('',#1705,#1706,#1707);
#1709=ITEM_DEFINED_TRANSFORMATION('assembly-instance:CartesianLamp.Base','Aetheris rigid occurrence transform',#1702,#1708);
#1710=(REPRESENTATION_RELATIONSHIP('assembly-instance:CartesianLamp.Base','',#1247,#1699)REPRESENTATION_RELATIONSHIP_WITH_TRANSFORMATION(#1709)SHAPE_REPRESENTATION_RELATIONSHIP());
#1711=CONTEXT_DEPENDENT_SHAPE_REPRESENTATION(#1710,#1704);
#1712=NEXT_ASSEMBLY_USAGE_OCCURRENCE('assembly-instance:CartesianLamp.LampBody','LampBody','',#1697,#1412,$);
#1713=PRODUCT_DEFINITION_SHAPE('','',#1712);
#1714=CARTESIAN_POINT('',(-153.8,0,537.5));
#1715=DIRECTION('',(0.8,0,-0.6));
#1716=DIRECTION('',(-0.6,0,-0.8));
#1717=AXIS2_PLACEMENT_3D('',#1714,#1715,#1716);
#1718=ITEM_DEFINED_TRANSFORMATION('assembly-instance:CartesianLamp.LampBody','Aetheris rigid occurrence transform',#1702,#1717);
#1719=(REPRESENTATION_RELATIONSHIP('assembly-instance:CartesianLamp.LampBody','',#1418,#1699)REPRESENTATION_RELATIONSHIP_WITH_TRANSFORMATION(#1718)SHAPE_REPRESENTATION_RELATIONSHIP());
#1720=CONTEXT_DEPENDENT_SHAPE_REPRESENTATION(#1719,#1713);
#1721=NEXT_ASSEMBLY_USAGE_OCCURRENCE('assembly-instance:CartesianLamp.LowerCollar','LowerCollar','',#1697,#98,$);
#1722=PRODUCT_DEFINITION_SHAPE('','',#1721);
#1723=CARTESIAN_POINT('',(-78,0,12));
#1724=DIRECTION('',(0,0,1));
#1725=DIRECTION('',(1,0,0));
#1726=AXIS2_PLACEMENT_3D('',#1723,#1724,#1725);
#1727=ITEM_DEFINED_TRANSFORMATION('assembly-instance:CartesianLamp.LowerCollar','Aetheris rigid occurrence transform',#1702,#1726);
#1728=(REPRESENTATION_RELATIONSHIP('assembly-instance:CartesianLamp.LowerCollar','',#104,#1699)REPRESENTATION_RELATIONSHIP_WITH_TRANSFORMATION(#1727)SHAPE_REPRESENTATION_RELATIONSHIP());
#1729=CONTEXT_DEPENDENT_SHAPE_REPRESENTATION(#1728,#1722);
#1730=NEXT_ASSEMBLY_USAGE_OCCURRENCE('assembly-instance:CartesianLamp.MountNut','MountNut','',#1697,#1680,$);
#1731=PRODUCT_DEFINITION_SHAPE('','',#1730);
#1732=CARTESIAN_POINT('',(-78,0,-3));
#1733=DIRECTION('',(0,0,1));
#1734=DIRECTION('',(1,0,0));
#1735=AXIS2_PLACEMENT_3D('',#1732,#1733,#1734);
#1736=ITEM_DEFINED_TRANSFORMATION('assembly-instance:CartesianLamp.MountNut','Aetheris rigid occurrence transform',#1702,#1735);
#1737=(REPRESENTATION_RELATIONSHIP('assembly-instance:CartesianLamp.MountNut','',#1686,#1699)REPRESENTATION_RELATIONSHIP_WITH_TRANSFORMATION(#1736)SHAPE_REPRESENTATION_RELATIONSHIP());
#1738=CONTEXT_DEPENDENT_SHAPE_REPRESENTATION(#1737,#1731);
#1739=NEXT_ASSEMBLY_USAGE_OCCURRENCE('assembly-instance:CartesianLamp.Pivot','Pivot','',#1697,#1307,$);
#1740=PRODUCT_DEFINITION_SHAPE('','',#1739);
#1741=CARTESIAN_POINT('',(-78,-10,441));
#1742=DIRECTION('',(0,1,0));
#1743=DIRECTION('',(1,0,0));
#1744=AXIS2_PLACEMENT_3D('',#1741,#1742,#1743);
#1745=ITEM_DEFINED_TRANSFORMATION('assembly-instance:CartesianLamp.Pivot','Aetheris rigid occurrence transform',#1702,#1744);
#1746=(REPRESENTATION_RELATIONSHIP('assembly-instance:CartesianLamp.Pivot','',#1313,#1699)REPRESENTATION_RELATIONSHIP_WITH_TRANSFORMATION(#1745)SHAPE_REPRESENTATION_RELATIONSHIP());
#1747=CONTEXT_DEPENDENT_SHAPE_REPRESENTATION(#1746,#1740);
#1748=NEXT_ASSEMBLY_USAGE_OCCURRENCE('assembly-instance:CartesianLamp.Pole','Pole','',#1697,#980,$);
#1749=PRODUCT_DEFINITION_SHAPE('','',#1748);
#1750=CARTESIAN_POINT('',(-78,0,2));
#1751=DIRECTION('',(0,0,1));
#1752=DIRECTION('',(1,0,0));
#1753=AXIS2_PLACEMENT_3D('',#1750,#1751,#1752);
#1754=ITEM_DEFINED_TRANSFORMATION('assembly-instance:CartesianLamp.Pole','Aetheris rigid occurrence transform',#1702,#1753);
#1755=(REPRESENTATION_RELATIONSHIP('assembly-instance:CartesianLamp.Pole','',#986,#1699)REPRESENTATION_RELATIONSHIP_WITH_TRANSFORMATION(#1754)SHAPE_REPRESENTATION_RELATIONSHIP());
#1756=CONTEXT_DEPENDENT_SHAPE_REPRESENTATION(#1755,#1749);
#1757=NEXT_ASSEMBLY_USAGE_OCCURRENCE('assembly-instance:CartesianLamp.Shade','Shade','',#1697,#914,$);
#1758=PRODUCT_DEFINITION_SHAPE('','',#1757);
#1759=CARTESIAN_POINT('',(0,0,0));
#1760=DIRECTION('',(0,0,1));
#1761=DIRECTION('',(1,0,0));
#1762=AXIS2_PLACEMENT_3D('',#1759,#1760,#1761);
#1763=ITEM_DEFINED_TRANSFORMATION('assembly-instance:CartesianLamp.Shade','Aetheris rigid occurrence transform',#1702,#1762);
#1764=(REPRESENTATION_RELATIONSHIP('assembly-instance:CartesianLamp.Shade','',#920,#1699)REPRESENTATION_RELATIONSHIP_WITH_TRANSFORMATION(#1763)SHAPE_REPRESENTATION_RELATIONSHIP());
#1765=CONTEXT_DEPENDENT_SHAPE_REPRESENTATION(#1764,#1758);
ENDSEC;
END-ISO-10303-21;
